<?xml version="1.0" encoding="us-ascii" standalone="no"?><svg xmlns="http://www.w3.org/2000/svg" xmlns:xlink="http://www.w3.org/1999/xlink" contentStyleType="text/css" height="607px" preserveAspectRatio="none" style="width:1372px;height:607px;background:#FFFFFF;" version="1.1" viewBox="0 0 1372 607" width="1372px" zoomAndPan="magnify"><defs/><g><!--class Frame--><g id="elem_Frame"><rect codeLine="1" fill="#F1F1F1" height="593.8906" id="Frame" rx="2.5" ry="2.5" style="stroke:#181818;stroke-width:0.5;" width="284" x="602.5" y="7"/><ellipse cx="719.75" cy="23" fill="#ADD1B2" rx="11" ry="11" style="stroke:#181818;stroke-width:1.0;"/><path d="M722.5156,18.875 Q722.6719,18.6563 722.8594,18.5469 Q723.0469,18.4375 723.2656,18.4375 Q723.6406,18.4375 723.875,18.7031 Q724.1094,18.9531 724.1094,19.5625 L724.1094,21.0156 Q724.1094,21.625 723.875,21.8906 Q723.6406,22.1563 723.2656,22.1563 Q722.9219,22.1563 722.7188,21.9531 Q722.5156,21.7656 722.4063,21.25 Q722.3594,20.8906 722.1719,20.7031 Q721.8438,20.3281 721.2344,20.1094 Q720.625,19.8906 720,19.8906 Q719.2344,19.8906 718.5938,20.2188 Q717.9688,20.5469 717.4688,21.2969 Q716.9844,22.0469 716.9844,23.0781 L716.9844,24.1719 Q716.9844,25.4063 717.875,26.2344 Q718.7656,27.0469 720.3594,27.0469 Q721.2969,27.0469 721.9531,26.7969 Q722.3438,26.6406 722.7656,26.2031 Q723.0313,25.9375 723.1719,25.8594 Q723.3281,25.7813 723.5313,25.7813 Q723.8594,25.7813 724.1094,26.0469 Q724.375,26.2969 724.375,26.6406 Q724.375,26.9844 724.0313,27.3906 Q723.5313,27.9688 722.7344,28.2969 Q721.6563,28.75 720.3594,28.75 Q718.8438,28.75 717.6406,28.125 Q716.6563,27.625 715.9688,26.5625 Q715.2813,25.4844 715.2813,24.2031 L715.2813,23.0469 Q715.2813,21.7188 715.8906,20.5781 Q716.5156,19.4219 717.6094,18.8125 Q718.7031,18.1875 719.9375,18.1875 Q720.6719,18.1875 721.3125,18.3594 Q721.9688,18.5156 722.5156,18.875 Z " fill="#000000"/><text fill="#000000" font-family="sans-serif" font-size="14" lengthAdjust="spacing" textLength="41" x="740.25" y="28.7285">Frame</text><line style="stroke:#181818;stroke-width:0.5;" x1="603.5" x2="885.5" y1="39" y2="39"/><rect fill="none" height="6" style="stroke:#C82930;stroke-width:1.0;" width="6" x="610.5" y="50.3047"/><text fill="#000000" font-family="sans-serif" font-size="14" lengthAdjust="spacing" textLength="84" x="622.5" y="57.5332">name : String</text><rect fill="none" height="6" style="stroke:#C82930;stroke-width:1.0;" width="6" x="610.5" y="67.9141"/><text fill="#000000" font-family="sans-serif" font-size="14" lengthAdjust="spacing" textLength="114" x="622.5" y="75.1426">returnType : Type</text><rect fill="none" height="6" style="stroke:#C82930;stroke-width:1.0;" width="6" x="610.5" y="85.5234"/><text fill="#000000" font-family="sans-serif" font-size="14" lengthAdjust="spacing" textLength="107" x="622.5" y="92.752">currentLabel : Int</text><rect fill="none" height="6" style="stroke:#C82930;stroke-width:1.0;" width="6" x="610.5" y="103.1328"/><text fill="#000000" font-family="sans-serif" font-size="14" lengthAdjust="spacing" textLength="132" x="622.5" y="110.3613">currOpStackSize : Int</text><rect fill="none" height="6" style="stroke:#C82930;stroke-width:1.0;" width="6" x="610.5" y="120.7422"/><text fill="#000000" font-family="sans-serif" font-size="14" lengthAdjust="spacing" textLength="132" x="622.5" y="127.9707">maxOpStackSize : Int</text><rect fill="none" height="6" style="stroke:#C82930;stroke-width:1.0;" width="6" x="610.5" y="138.3516"/><text fill="#000000" font-family="sans-serif" font-size="14" lengthAdjust="spacing" textLength="85" x="622.5" y="145.5801">currIndex : Int</text><rect fill="none" height="6" style="stroke:#C82930;stroke-width:1.0;" width="6" x="610.5" y="155.9609"/><text fill="#000000" font-family="sans-serif" font-size="14" lengthAdjust="spacing" textLength="85" x="622.5" y="163.1895">maxIndex : Int</text><rect fill="none" height="6" style="stroke:#C82930;stroke-width:1.0;" width="6" x="610.5" y="173.5703"/><text fill="#000000" font-family="sans-serif" font-size="14" lengthAdjust="spacing" textLength="97" x="622.5" y="180.7988">startLabel : List</text><rect fill="none" height="6" style="stroke:#C82930;stroke-width:1.0;" width="6" x="610.5" y="191.1797"/><text fill="#000000" font-family="sans-serif" font-size="14" lengthAdjust="spacing" textLength="93" x="622.5" y="198.4082">endLabel : List</text><rect fill="none" height="6" style="stroke:#C82930;stroke-width:1.0;" width="6" x="610.5" y="208.7891"/><text fill="#000000" font-family="sans-serif" font-size="14" lengthAdjust="spacing" textLength="101" x="622.5" y="216.0176">indexLocal : List</text><rect fill="none" height="6" style="stroke:#C82930;stroke-width:1.0;" width="6" x="610.5" y="226.3984"/><text fill="#000000" font-family="sans-serif" font-size="14" lengthAdjust="spacing" textLength="92" x="622.5" y="233.627">conLabel : List</text><rect fill="none" height="6" style="stroke:#C82930;stroke-width:1.0;" width="6" x="610.5" y="244.0078"/><text fill="#000000" font-family="sans-serif" font-size="14" lengthAdjust="spacing" textLength="89" x="622.5" y="251.2363">brkLabel : List</text><line style="stroke:#181818;stroke-width:0.5;" x1="603.5" x2="885.5" y1="258.3125" y2="258.3125"/><ellipse cx="613.5" cy="272.6172" fill="#84BE84" rx="3" ry="3" style="stroke:#038048;stroke-width:1.0;"/><text fill="#000000" font-family="sans-serif" font-size="14" lengthAdjust="spacing" textLength="258" x="622.5" y="276.8457">__init__(name: String, returnType: Type)</text><ellipse cx="613.5" cy="290.2266" fill="#84BE84" rx="3" ry="3" style="stroke:#038048;stroke-width:1.0;"/><text fill="#000000" font-family="sans-serif" font-size="14" lengthAdjust="spacing" textLength="118" x="622.5" y="294.4551">getCurrIndex() : Int</text><ellipse cx="613.5" cy="307.8359" fill="#84BE84" rx="3" ry="3" style="stroke:#038048;stroke-width:1.0;"/><text fill="#000000" font-family="sans-serif" font-size="14" lengthAdjust="spacing" textLength="146" x="622.5" y="312.0645">setCurrIndex(index: Int)</text><ellipse cx="613.5" cy="325.4453" fill="#84BE84" rx="3" ry="3" style="stroke:#038048;stroke-width:1.0;"/><text fill="#000000" font-family="sans-serif" font-size="14" lengthAdjust="spacing" textLength="118" x="622.5" y="329.6738">getNewLabel() : Int</text><ellipse cx="613.5" cy="343.0547" fill="#84BE84" rx="3" ry="3" style="stroke:#038048;stroke-width:1.0;"/><text fill="#000000" font-family="sans-serif" font-size="14" lengthAdjust="spacing" textLength="41" x="622.5" y="347.2832">push()</text><ellipse cx="613.5" cy="360.6641" fill="#84BE84" rx="3" ry="3" style="stroke:#038048;stroke-width:1.0;"/><text fill="#000000" font-family="sans-serif" font-size="14" lengthAdjust="spacing" textLength="34" x="622.5" y="364.8926">pop()</text><ellipse cx="613.5" cy="378.2734" fill="#84BE84" rx="3" ry="3" style="stroke:#038048;stroke-width:1.0;"/><text fill="#000000" font-family="sans-serif" font-size="14" lengthAdjust="spacing" textLength="118" x="622.5" y="382.502">getStackSize() : Int</text><ellipse cx="613.5" cy="395.8828" fill="#84BE84" rx="3" ry="3" style="stroke:#038048;stroke-width:1.0;"/><text fill="#000000" font-family="sans-serif" font-size="14" lengthAdjust="spacing" textLength="162" x="622.5" y="400.1113">getMaxOpStackSize() : Int</text><ellipse cx="613.5" cy="413.4922" fill="#84BE84" rx="3" ry="3" style="stroke:#038048;stroke-width:1.0;"/><text fill="#000000" font-family="sans-serif" font-size="14" lengthAdjust="spacing" textLength="101" x="622.5" y="417.7207">checkOpStack()</text><ellipse cx="613.5" cy="431.1016" fill="#84BE84" rx="3" ry="3" style="stroke:#038048;stroke-width:1.0;"/><text fill="#000000" font-family="sans-serif" font-size="14" lengthAdjust="spacing" textLength="182" x="622.5" y="435.3301">enterScope(isProc: Boolean)</text><ellipse cx="613.5" cy="448.7109" fill="#84BE84" rx="3" ry="3" style="stroke:#038048;stroke-width:1.0;"/><text fill="#000000" font-family="sans-serif" font-size="14" lengthAdjust="spacing" textLength="71" x="622.5" y="452.9395">exitScope()</text><ellipse cx="613.5" cy="466.3203" fill="#84BE84" rx="3" ry="3" style="stroke:#038048;stroke-width:1.0;"/><text fill="#000000" font-family="sans-serif" font-size="14" lengthAdjust="spacing" textLength="122" x="622.5" y="470.5488">getStartLabel() : Int</text><ellipse cx="613.5" cy="483.9297" fill="#84BE84" rx="3" ry="3" style="stroke:#038048;stroke-width:1.0;"/><text fill="#000000" font-family="sans-serif" font-size="14" lengthAdjust="spacing" textLength="117" x="622.5" y="488.1582">getEndLabel() : Int</text><ellipse cx="613.5" cy="501.5391" fill="#84BE84" rx="3" ry="3" style="stroke:#038048;stroke-width:1.0;"/><text fill="#000000" font-family="sans-serif" font-size="14" lengthAdjust="spacing" textLength="116" x="622.5" y="505.7676">getNewIndex() : Int</text><ellipse cx="613.5" cy="519.1484" fill="#84BE84" rx="3" ry="3" style="stroke:#038048;stroke-width:1.0;"/><text fill="#000000" font-family="sans-serif" font-size="14" lengthAdjust="spacing" textLength="115" x="622.5" y="523.377">getMaxIndex() : Int</text><ellipse cx="613.5" cy="536.7578" fill="#84BE84" rx="3" ry="3" style="stroke:#038048;stroke-width:1.0;"/><text fill="#000000" font-family="sans-serif" font-size="14" lengthAdjust="spacing" textLength="75" x="622.5" y="540.9863">enterLoop()</text><ellipse cx="613.5" cy="554.3672" fill="#84BE84" rx="3" ry="3" style="stroke:#038048;stroke-width:1.0;"/><text fill="#000000" font-family="sans-serif" font-size="14" lengthAdjust="spacing" textLength="63" x="622.5" y="558.5957">exitLoop()</text><ellipse cx="613.5" cy="571.9766" fill="#84BE84" rx="3" ry="3" style="stroke:#038048;stroke-width:1.0;"/><text fill="#000000" font-family="sans-serif" font-size="14" lengthAdjust="spacing" textLength="149" x="622.5" y="576.2051">getContinueLabel() : Int</text><ellipse cx="613.5" cy="589.5859" fill="#84BE84" rx="3" ry="3" style="stroke:#038048;stroke-width:1.0;"/><text fill="#000000" font-family="sans-serif" font-size="14" lengthAdjust="spacing" textLength="129" x="622.5" y="593.8145">getBreakLabel() : Int</text></g><path d="M921.5,213 L921.5,222.1758 L880.5,271.1172 L921.5,230.1758 L921.5,239.3516 A0,0 0 0 0 921.5,239.3516 L1275.5,239.3516 A0,0 0 0 0 1275.5,239.3516 L1275.5,223 L1265.5,213 L921.5,213 A0,0 0 0 0 921.5,213 " fill="#FEFFDD" style="stroke:#181818;stroke-width:0.5;"/><path d="M1265.5,213 L1265.5,223 L1275.5,223 L1265.5,213 " fill="#FEFFDD" style="stroke:#181818;stroke-width:0.5;"/><text fill="#000000" font-family="sans-serif" font-size="13" lengthAdjust="spacing" textLength="333" x="927.5" y="231.4951">Initializes the Frame with a method name and return type.</text><path d="M921.5,249.3516 L921.5,258.5273 L663.5,341.5547 L921.5,266.5273 L921.5,275.7031 A0,0 0 0 0 921.5,275.7031 L1234.5,275.7031 A0,0 0 0 0 1234.5,275.7031 L1234.5,259.3516 L1224.5,249.3516 L921.5,249.3516 A0,0 0 0 0 921.5,249.3516 " fill="#FEFFDD" style="stroke:#181818;stroke-width:0.5;"/><path d="M1224.5,249.3516 L1224.5,259.3516 L1234.5,259.3516 L1224.5,249.3516 " fill="#FEFFDD" style="stroke:#181818;stroke-width:0.5;"/><text fill="#000000" font-family="sans-serif" font-size="13" lengthAdjust="spacing" textLength="292" x="927.5" y="267.8467">Simulates pushing a value onto the operand stack.</text><path d="M921.5,285.7031 L921.5,294.8789 L723.5,411.9922 L921.5,302.8789 L921.5,312.0547 A0,0 0 0 0 921.5,312.0547 L1345.5,312.0547 A0,0 0 0 0 1345.5,312.0547 L1345.5,295.7031 L1335.5,285.7031 L921.5,285.7031 A0,0 0 0 0 921.5,285.7031 " fill="#FEFFDD" style="stroke:#181818;stroke-width:0.5;"/><path d="M1335.5,285.7031 L1335.5,295.7031 L1345.5,295.7031 L1335.5,285.7031 " fill="#FEFFDD" style="stroke:#181818;stroke-width:0.5;"/><text fill="#000000" font-family="sans-serif" font-size="13" lengthAdjust="spacing" textLength="403" x="927.5" y="304.1982">Checks if the operand stack is empty. Raises an exception if it is not.</text><path d="M921.5,322.0547 L921.5,331.2305 L693.5,447.2109 L921.5,339.2305 L921.5,348.4063 A0,0 0 0 0 921.5,348.4063 L1365.5,348.4063 A0,0 0 0 0 1365.5,348.4063 L1365.5,332.0547 L1355.5,322.0547 L921.5,322.0547 A0,0 0 0 0 921.5,322.0547 " fill="#FEFFDD" style="stroke:#181818;stroke-width:0.5;"/><path d="M1355.5,322.0547 L1355.5,332.0547 L1365.5,332.0547 L1355.5,322.0547 " fill="#FEFFDD" style="stroke:#181818;stroke-width:0.5;"/><text fill="#000000" font-family="sans-serif" font-size="13" lengthAdjust="spacing" textLength="423" x="927.5" y="340.5498">Exits the current scope, restoring the previous index and removing labels.</text><path d="M921.5,358.4063 L921.5,367.582 L685.5,552.8672 L921.5,375.582 L921.5,384.7578 A0,0 0 0 0 921.5,384.7578 L1281.5,384.7578 A0,0 0 0 0 1281.5,384.7578 L1281.5,368.4063 L1271.5,358.4063 L921.5,358.4063 A0,0 0 0 0 921.5,358.4063 " fill="#FEFFDD" style="stroke:#181818;stroke-width:0.5;"/><path d="M1271.5,358.4063 L1271.5,368.4063 L1281.5,368.4063 L1271.5,358.4063 " fill="#FEFFDD" style="stroke:#181818;stroke-width:0.5;"/><text fill="#000000" font-family="sans-serif" font-size="13" lengthAdjust="spacing" textLength="339" x="927.5" y="376.9014">Exits the current loop, removing continue and break labels.</text><path d="M6,231.5 L6,257.8516 A0,0 0 0 0 6,257.8516 L355,257.8516 A0,0 0 0 0 355,257.8516 L355,249.5 L606.5,323.9453 L355,241.5 L355,241.5 L345,231.5 L6,231.5 A0,0 0 0 0 6,231.5 " fill="#FEFFDD" style="stroke:#181818;stroke-width:0.5;"/><path d="M345,231.5 L345,241.5 L355,241.5 L345,231.5 " fill="#FEFFDD" style="stroke:#181818;stroke-width:0.5;"/><text fill="#000000" font-family="sans-serif" font-size="13" lengthAdjust="spacing" textLength="328" x="12" y="249.9951">Generates and returns a new label for use in the method.</text><path d="M6,267.8516 L6,294.2031 A0,0 0 0 0 6,294.2031 L567,294.2031 A0,0 0 0 0 567,294.2031 L567,285.8516 L606.5,359.1641 L567,277.8516 L567,277.8516 L557,267.8516 L6,267.8516 A0,0 0 0 0 6,267.8516 " fill="#FEFFDD" style="stroke:#181818;stroke-width:0.5;"/><path d="M557,267.8516 L557,277.8516 L567,277.8516 L557,267.8516 " fill="#FEFFDD" style="stroke:#181818;stroke-width:0.5;"/><text fill="#000000" font-family="sans-serif" font-size="13" lengthAdjust="spacing" textLength="540" x="12" y="286.3467">Simulates popping a value from the operand stack. Raises an exception if the stack is empty.</text><path d="M6,304.2031 L6,330.5547 A0,0 0 0 0 6,330.5547 L484,330.5547 A0,0 0 0 0 484,330.5547 L484,322.2031 L606.5,429.6016 L484,314.2031 L484,314.2031 L474,304.2031 L6,304.2031 A0,0 0 0 0 6,304.2031 " fill="#FEFFDD" style="stroke:#181818;stroke-width:0.5;"/><path d="M474,304.2031 L474,314.2031 L484,314.2031 L474,304.2031 " fill="#FEFFDD" style="stroke:#181818;stroke-width:0.5;"/><text fill="#000000" font-family="sans-serif" font-size="13" lengthAdjust="spacing" textLength="457" x="12" y="322.6982">Enters a new scope, creating start and end labels and saving the current index.</text><path d="M6,340.5547 L6,366.9063 A0,0 0 0 0 6,366.9063 L314,366.9063 A0,0 0 0 0 314,366.9063 L314,358.5547 L606.5,535.2578 L314,350.5547 L314,350.5547 L304,340.5547 L6,340.5547 A0,0 0 0 0 6,340.5547 " fill="#FEFFDD" style="stroke:#181818;stroke-width:0.5;"/><path d="M304,340.5547 L304,350.5547 L314,350.5547 L304,340.5547 " fill="#FEFFDD" style="stroke:#181818;stroke-width:0.5;"/><text fill="#000000" font-family="sans-serif" font-size="13" lengthAdjust="spacing" textLength="287" x="12" y="359.0498">Enters a loop, creating continue and break labels.</text><!--SRC=[ZLJRZjem47tFLymZgzts0tZS5QsGw4MbxyYOWLWaTcGxmBRgltV6Te8JWjYy99upFcUkaPLm3hvOKIFyBO2UJw3vC8UrjqeVaisYRwt-_TummgzabwsrgFrARB4YPAbz1lnerbx8urhzmG5MYyizYAyjzGulumktHkU5xOLNodLsrBi9g-BxAoF5o2wDdl3UskF06ipFiDaehVncC-CITHLwoOeJQ_EKt0_etxfyPazPyC_WSYZ45j3ivdSyXn165vlMbRFEhJ7DBBlIbtHqXw1lWvAFS5cYF2QuvwEkebrBq-1CkP_Mo3cy6bEXqBt7HVdeC8mXTUKsY4Ngp2r2oKvLAGO-XOJeLYRBdwCP6BZwHdkbMxoZ-cfH78VOlwBGnYDOTIWzc7rSZVcywtonf9SI5HNHWIynhSvP-H84rEXBiuiB9FGk3GPucedF1SqbC7TIg72V2sGTBxwYHYiyALn9w1iqdg4AOxat5bg7DDKXYAXx8p5EWcUdMAkwhG8v7sb-YVWagXQ1YcK27RNKihBZWNWKECrWpccQ9kVSMrDFSC8leLp8Z_eciV7AQ53xu1ayG3d0kl7l3vFAXxTuuuFhc0QQLyPxuigp3uayIlcw6iM2FxlUE3QzWAInybo4y8SAFMI-qBdOKYTEZ7ECwGSQ_qyFa-rNhbZGbnim97MBpXlRqJSMJygqBlAdUQfDa8y1VIXPNgnhhXMTiZHbshB0lkMTkaSzbKwaliacQlInVa3ZFm00]--></g></svg>