<?xml version="1.0" encoding="us-ascii" standalone="no"?><svg xmlns="http://www.w3.org/2000/svg" xmlns:xlink="http://www.w3.org/1999/xlink" contentStyleType="text/css" height="1278px" preserveAspectRatio="none" style="width:607px;height:1278px;background:#FFFFFF;" version="1.1" viewBox="0 0 607 1278" width="607px" zoomAndPan="magnify"><defs/><g><!--class Kind--><g id="elem_Kind"><rect codeLine="5" fill="#F1F1F1" height="48" id="Kind" rx="2.5" ry="2.5" style="stroke:#181818;stroke-width:0.5;" width="60" x="26.5" y="810.5"/><ellipse cx="41.5" cy="826.5" fill="#ADD1B2" rx="11" ry="11" style="stroke:#181818;stroke-width:1.0;"/><path d="M44.2656,822.375 Q44.4219,822.1563 44.6094,822.0469 Q44.7969,821.9375 45.0156,821.9375 Q45.3906,821.9375 45.625,822.2031 Q45.8594,822.4531 45.8594,823.0625 L45.8594,824.5156 Q45.8594,825.125 45.625,825.3906 Q45.3906,825.6563 45.0156,825.6563 Q44.6719,825.6563 44.4688,825.4531 Q44.2656,825.2656 44.1563,824.75 Q44.1094,824.3906 43.9219,824.2031 Q43.5938,823.8281 42.9844,823.6094 Q42.375,823.3906 41.75,823.3906 Q40.9844,823.3906 40.3438,823.7188 Q39.7188,824.0469 39.2188,824.7969 Q38.7344,825.5469 38.7344,826.5781 L38.7344,827.6719 Q38.7344,828.9063 39.625,829.7344 Q40.5156,830.5469 42.1094,830.5469 Q43.0469,830.5469 43.7031,830.2969 Q44.0938,830.1406 44.5156,829.7031 Q44.7813,829.4375 44.9219,829.3594 Q45.0781,829.2813 45.2813,829.2813 Q45.6094,829.2813 45.8594,829.5469 Q46.125,829.7969 46.125,830.1406 Q46.125,830.4844 45.7813,830.8906 Q45.2813,831.4688 44.4844,831.7969 Q43.4063,832.25 42.1094,832.25 Q40.5938,832.25 39.3906,831.625 Q38.4063,831.125 37.7188,830.0625 Q37.0313,828.9844 37.0313,827.7031 L37.0313,826.5469 Q37.0313,825.2188 37.6406,824.0781 Q38.2656,822.9219 39.3594,822.3125 Q40.4531,821.6875 41.6875,821.6875 Q42.4219,821.6875 43.0625,821.8594 Q43.7188,822.0156 44.2656,822.375 Z " fill="#000000"/><text fill="#000000" font-family="sans-serif" font-size="14" lengthAdjust="spacing" textLength="28" x="55.5" y="832.2285">Kind</text><line style="stroke:#181818;stroke-width:0.5;" x1="27.5" x2="85.5" y1="842.5" y2="842.5"/><line style="stroke:#181818;stroke-width:0.5;" x1="27.5" x2="85.5" y1="850.5" y2="850.5"/></g><!--class Function--><g id="elem_Function"><rect codeLine="18" fill="#F1F1F1" height="65.6094" id="Function" rx="2.5" ry="2.5" style="stroke:#181818;stroke-width:0.5;" width="108" x="223" y="397.5"/><ellipse cx="247.45" cy="413.5" fill="#ADD1B2" rx="11" ry="11" style="stroke:#181818;stroke-width:1.0;"/><path d="M250.2156,409.375 Q250.3719,409.1563 250.5594,409.0469 Q250.7469,408.9375 250.9656,408.9375 Q251.3406,408.9375 251.575,409.2031 Q251.8094,409.4531 251.8094,410.0625 L251.8094,411.5156 Q251.8094,412.125 251.575,412.3906 Q251.3406,412.6563 250.9656,412.6563 Q250.6219,412.6563 250.4188,412.4531 Q250.2156,412.2656 250.1063,411.75 Q250.0594,411.3906 249.8719,411.2031 Q249.5438,410.8281 248.9344,410.6094 Q248.325,410.3906 247.7,410.3906 Q246.9344,410.3906 246.2938,410.7188 Q245.6688,411.0469 245.1688,411.7969 Q244.6844,412.5469 244.6844,413.5781 L244.6844,414.6719 Q244.6844,415.9063 245.575,416.7344 Q246.4656,417.5469 248.0594,417.5469 Q248.9969,417.5469 249.6531,417.2969 Q250.0438,417.1406 250.4656,416.7031 Q250.7313,416.4375 250.8719,416.3594 Q251.0281,416.2813 251.2313,416.2813 Q251.5594,416.2813 251.8094,416.5469 Q252.075,416.7969 252.075,417.1406 Q252.075,417.4844 251.7313,417.8906 Q251.2313,418.4688 250.4344,418.7969 Q249.3563,419.25 248.0594,419.25 Q246.5438,419.25 245.3406,418.625 Q244.3563,418.125 243.6688,417.0625 Q242.9813,415.9844 242.9813,414.7031 L242.9813,413.5469 Q242.9813,412.2188 243.5906,411.0781 Q244.2156,409.9219 245.3094,409.3125 Q246.4031,408.6875 247.6375,408.6875 Q248.3719,408.6875 249.0125,408.8594 Q249.6688,409.0156 250.2156,409.375 Z " fill="#000000"/><text fill="#000000" font-family="sans-serif" font-size="14" lengthAdjust="spacing" textLength="55" x="263.55" y="419.2285">Function</text><line style="stroke:#181818;stroke-width:0.5;" x1="224" x2="330" y1="429.5" y2="429.5"/><line style="stroke:#181818;stroke-width:0.5;" x1="224" x2="330" y1="437.5" y2="437.5"/><ellipse cx="234" cy="451.8047" fill="#84BE84" rx="3" ry="3" style="stroke:#038048;stroke-width:1.0;"/><text fill="#000000" font-family="sans-serif" font-size="14" lengthAdjust="spacing" textLength="82" x="243" y="456.0332">__str__(): str</text></g><!--class Method--><g id="elem_Method"><rect codeLine="22" fill="#F1F1F1" height="65.6094" id="Method" rx="2.5" ry="2.5" style="stroke:#181818;stroke-width:0.5;" width="108" x="223" y="498.5"/><ellipse cx="251.05" cy="514.5" fill="#ADD1B2" rx="11" ry="11" style="stroke:#181818;stroke-width:1.0;"/><path d="M253.8156,510.375 Q253.9719,510.1563 254.1594,510.0469 Q254.3469,509.9375 254.5656,509.9375 Q254.9406,509.9375 255.175,510.2031 Q255.4094,510.4531 255.4094,511.0625 L255.4094,512.5156 Q255.4094,513.125 255.175,513.3906 Q254.9406,513.6563 254.5656,513.6563 Q254.2219,513.6563 254.0188,513.4531 Q253.8156,513.2656 253.7063,512.75 Q253.6594,512.3906 253.4719,512.2031 Q253.1438,511.8281 252.5344,511.6094 Q251.925,511.3906 251.3,511.3906 Q250.5344,511.3906 249.8938,511.7188 Q249.2688,512.0469 248.7688,512.7969 Q248.2844,513.5469 248.2844,514.5781 L248.2844,515.6719 Q248.2844,516.9063 249.175,517.7344 Q250.0656,518.5469 251.6594,518.5469 Q252.5969,518.5469 253.2531,518.2969 Q253.6438,518.1406 254.0656,517.7031 Q254.3313,517.4375 254.4719,517.3594 Q254.6281,517.2813 254.8313,517.2813 Q255.1594,517.2813 255.4094,517.5469 Q255.675,517.7969 255.675,518.1406 Q255.675,518.4844 255.3313,518.8906 Q254.8313,519.4688 254.0344,519.7969 Q252.9563,520.25 251.6594,520.25 Q250.1438,520.25 248.9406,519.625 Q247.9563,519.125 247.2688,518.0625 Q246.5813,516.9844 246.5813,515.7031 L246.5813,514.5469 Q246.5813,513.2188 247.1906,512.0781 Q247.8156,510.9219 248.9094,510.3125 Q250.0031,509.6875 251.2375,509.6875 Q251.9719,509.6875 252.6125,509.8594 Q253.2688,510.0156 253.8156,510.375 Z " fill="#000000"/><text fill="#000000" font-family="sans-serif" font-size="14" lengthAdjust="spacing" textLength="47" x="267.95" y="520.2285">Method</text><line style="stroke:#181818;stroke-width:0.5;" x1="224" x2="330" y1="530.5" y2="530.5"/><line style="stroke:#181818;stroke-width:0.5;" x1="224" x2="330" y1="538.5" y2="538.5"/><ellipse cx="234" cy="552.8047" fill="#84BE84" rx="3" ry="3" style="stroke:#038048;stroke-width:1.0;"/><text fill="#000000" font-family="sans-serif" font-size="14" lengthAdjust="spacing" textLength="82" x="243" y="557.0332">__str__(): str</text></g><!--class Parameter--><g id="elem_Parameter"><rect codeLine="26" fill="#F1F1F1" height="65.6094" id="Parameter" rx="2.5" ry="2.5" style="stroke:#181818;stroke-width:0.5;" width="108" x="223" y="599.5"/><ellipse cx="242.5" cy="615.5" fill="#ADD1B2" rx="11" ry="11" style="stroke:#181818;stroke-width:1.0;"/><path d="M245.2656,611.375 Q245.4219,611.1563 245.6094,611.0469 Q245.7969,610.9375 246.0156,610.9375 Q246.3906,610.9375 246.625,611.2031 Q246.8594,611.4531 246.8594,612.0625 L246.8594,613.5156 Q246.8594,614.125 246.625,614.3906 Q246.3906,614.6563 246.0156,614.6563 Q245.6719,614.6563 245.4688,614.4531 Q245.2656,614.2656 245.1563,613.75 Q245.1094,613.3906 244.9219,613.2031 Q244.5938,612.8281 243.9844,612.6094 Q243.375,612.3906 242.75,612.3906 Q241.9844,612.3906 241.3438,612.7188 Q240.7188,613.0469 240.2188,613.7969 Q239.7344,614.5469 239.7344,615.5781 L239.7344,616.6719 Q239.7344,617.9063 240.625,618.7344 Q241.5156,619.5469 243.1094,619.5469 Q244.0469,619.5469 244.7031,619.2969 Q245.0938,619.1406 245.5156,618.7031 Q245.7813,618.4375 245.9219,618.3594 Q246.0781,618.2813 246.2813,618.2813 Q246.6094,618.2813 246.8594,618.5469 Q247.125,618.7969 247.125,619.1406 Q247.125,619.4844 246.7813,619.8906 Q246.2813,620.4688 245.4844,620.7969 Q244.4063,621.25 243.1094,621.25 Q241.5938,621.25 240.3906,620.625 Q239.4063,620.125 238.7188,619.0625 Q238.0313,617.9844 238.0313,616.7031 L238.0313,615.5469 Q238.0313,614.2188 238.6406,613.0781 Q239.2656,611.9219 240.3594,611.3125 Q241.4531,610.6875 242.6875,610.6875 Q243.4219,610.6875 244.0625,610.8594 Q244.7188,611.0156 245.2656,611.375 Z " fill="#000000"/><text fill="#000000" font-family="sans-serif" font-size="14" lengthAdjust="spacing" textLength="66" x="257.5" y="621.2285">Parameter</text><line style="stroke:#181818;stroke-width:0.5;" x1="224" x2="330" y1="631.5" y2="631.5"/><line style="stroke:#181818;stroke-width:0.5;" x1="224" x2="330" y1="639.5" y2="639.5"/><ellipse cx="234" cy="653.8047" fill="#84BE84" rx="3" ry="3" style="stroke:#038048;stroke-width:1.0;"/><text fill="#000000" font-family="sans-serif" font-size="14" lengthAdjust="spacing" textLength="82" x="243" y="658.0332">__str__(): str</text></g><!--class Variable--><g id="elem_Variable"><rect codeLine="30" fill="#F1F1F1" height="65.6094" id="Variable" rx="2.5" ry="2.5" style="stroke:#181818;stroke-width:0.5;" width="108" x="223" y="700.5"/><ellipse cx="248.8" cy="716.5" fill="#ADD1B2" rx="11" ry="11" style="stroke:#181818;stroke-width:1.0;"/><path d="M251.5656,712.375 Q251.7219,712.1563 251.9094,712.0469 Q252.0969,711.9375 252.3156,711.9375 Q252.6906,711.9375 252.925,712.2031 Q253.1594,712.4531 253.1594,713.0625 L253.1594,714.5156 Q253.1594,715.125 252.925,715.3906 Q252.6906,715.6563 252.3156,715.6563 Q251.9719,715.6563 251.7688,715.4531 Q251.5656,715.2656 251.4563,714.75 Q251.4094,714.3906 251.2219,714.2031 Q250.8938,713.8281 250.2844,713.6094 Q249.675,713.3906 249.05,713.3906 Q248.2844,713.3906 247.6438,713.7188 Q247.0188,714.0469 246.5188,714.7969 Q246.0344,715.5469 246.0344,716.5781 L246.0344,717.6719 Q246.0344,718.9063 246.925,719.7344 Q247.8156,720.5469 249.4094,720.5469 Q250.3469,720.5469 251.0031,720.2969 Q251.3938,720.1406 251.8156,719.7031 Q252.0813,719.4375 252.2219,719.3594 Q252.3781,719.2813 252.5813,719.2813 Q252.9094,719.2813 253.1594,719.5469 Q253.425,719.7969 253.425,720.1406 Q253.425,720.4844 253.0813,720.8906 Q252.5813,721.4688 251.7844,721.7969 Q250.7063,722.25 249.4094,722.25 Q247.8938,722.25 246.6906,721.625 Q245.7063,721.125 245.0188,720.0625 Q244.3313,718.9844 244.3313,717.7031 L244.3313,716.5469 Q244.3313,715.2188 244.9406,714.0781 Q245.5656,712.9219 246.6594,712.3125 Q247.7531,711.6875 248.9875,711.6875 Q249.7219,711.6875 250.3625,711.8594 Q251.0188,712.0156 251.5656,712.375 Z " fill="#000000"/><text fill="#000000" font-family="sans-serif" font-size="14" lengthAdjust="spacing" textLength="52" x="265.2" y="722.2285">Variable</text><line style="stroke:#181818;stroke-width:0.5;" x1="224" x2="330" y1="732.5" y2="732.5"/><line style="stroke:#181818;stroke-width:0.5;" x1="224" x2="330" y1="740.5" y2="740.5"/><ellipse cx="234" cy="754.8047" fill="#84BE84" rx="3" ry="3" style="stroke:#038048;stroke-width:1.0;"/><text fill="#000000" font-family="sans-serif" font-size="14" lengthAdjust="spacing" textLength="82" x="243" y="759.0332">__str__(): str</text></g><!--class Constant--><g id="elem_Constant"><rect codeLine="34" fill="#F1F1F1" height="65.6094" id="Constant" rx="2.5" ry="2.5" style="stroke:#181818;stroke-width:0.5;" width="108" x="223" y="801.5"/><ellipse cx="246.55" cy="817.5" fill="#ADD1B2" rx="11" ry="11" style="stroke:#181818;stroke-width:1.0;"/><path d="M249.3156,813.375 Q249.4719,813.1563 249.6594,813.0469 Q249.8469,812.9375 250.0656,812.9375 Q250.4406,812.9375 250.675,813.2031 Q250.9094,813.4531 250.9094,814.0625 L250.9094,815.5156 Q250.9094,816.125 250.675,816.3906 Q250.4406,816.6563 250.0656,816.6563 Q249.7219,816.6563 249.5188,816.4531 Q249.3156,816.2656 249.2063,815.75 Q249.1594,815.3906 248.9719,815.2031 Q248.6438,814.8281 248.0344,814.6094 Q247.425,814.3906 246.8,814.3906 Q246.0344,814.3906 245.3938,814.7188 Q244.7688,815.0469 244.2688,815.7969 Q243.7844,816.5469 243.7844,817.5781 L243.7844,818.6719 Q243.7844,819.9063 244.675,820.7344 Q245.5656,821.5469 247.1594,821.5469 Q248.0969,821.5469 248.7531,821.2969 Q249.1438,821.1406 249.5656,820.7031 Q249.8313,820.4375 249.9719,820.3594 Q250.1281,820.2813 250.3313,820.2813 Q250.6594,820.2813 250.9094,820.5469 Q251.175,820.7969 251.175,821.1406 Q251.175,821.4844 250.8313,821.8906 Q250.3313,822.4688 249.5344,822.7969 Q248.4563,823.25 247.1594,823.25 Q245.6438,823.25 244.4406,822.625 Q243.4563,822.125 242.7688,821.0625 Q242.0813,819.9844 242.0813,818.7031 L242.0813,817.5469 Q242.0813,816.2188 242.6906,815.0781 Q243.3156,813.9219 244.4094,813.3125 Q245.5031,812.6875 246.7375,812.6875 Q247.4719,812.6875 248.1125,812.8594 Q248.7688,813.0156 249.3156,813.375 Z " fill="#000000"/><text fill="#000000" font-family="sans-serif" font-size="14" lengthAdjust="spacing" textLength="57" x="262.45" y="823.2285">Constant</text><line style="stroke:#181818;stroke-width:0.5;" x1="224" x2="330" y1="833.5" y2="833.5"/><line style="stroke:#181818;stroke-width:0.5;" x1="224" x2="330" y1="841.5" y2="841.5"/><ellipse cx="234" cy="855.8047" fill="#84BE84" rx="3" ry="3" style="stroke:#038048;stroke-width:1.0;"/><text fill="#000000" font-family="sans-serif" font-size="14" lengthAdjust="spacing" textLength="82" x="243" y="860.0332">__str__(): str</text></g><!--class Field--><g id="elem_Field"><rect codeLine="38" fill="#F1F1F1" height="65.6094" id="Field" rx="2.5" ry="2.5" style="stroke:#181818;stroke-width:0.5;" width="108" x="223" y="902.5"/><ellipse cx="258.25" cy="918.5" fill="#ADD1B2" rx="11" ry="11" style="stroke:#181818;stroke-width:1.0;"/><path d="M261.0156,914.375 Q261.1719,914.1563 261.3594,914.0469 Q261.5469,913.9375 261.7656,913.9375 Q262.1406,913.9375 262.375,914.2031 Q262.6094,914.4531 262.6094,915.0625 L262.6094,916.5156 Q262.6094,917.125 262.375,917.3906 Q262.1406,917.6563 261.7656,917.6563 Q261.4219,917.6563 261.2188,917.4531 Q261.0156,917.2656 260.9063,916.75 Q260.8594,916.3906 260.6719,916.2031 Q260.3438,915.8281 259.7344,915.6094 Q259.125,915.3906 258.5,915.3906 Q257.7344,915.3906 257.0938,915.7188 Q256.4688,916.0469 255.9688,916.7969 Q255.4844,917.5469 255.4844,918.5781 L255.4844,919.6719 Q255.4844,920.9063 256.375,921.7344 Q257.2656,922.5469 258.8594,922.5469 Q259.7969,922.5469 260.4531,922.2969 Q260.8438,922.1406 261.2656,921.7031 Q261.5313,921.4375 261.6719,921.3594 Q261.8281,921.2813 262.0313,921.2813 Q262.3594,921.2813 262.6094,921.5469 Q262.875,921.7969 262.875,922.1406 Q262.875,922.4844 262.5313,922.8906 Q262.0313,923.4688 261.2344,923.7969 Q260.1563,924.25 258.8594,924.25 Q257.3438,924.25 256.1406,923.625 Q255.1563,923.125 254.4688,922.0625 Q253.7813,920.9844 253.7813,919.7031 L253.7813,918.5469 Q253.7813,917.2188 254.3906,916.0781 Q255.0156,914.9219 256.1094,914.3125 Q257.2031,913.6875 258.4375,913.6875 Q259.1719,913.6875 259.8125,913.8594 Q260.4688,914.0156 261.0156,914.375 Z " fill="#000000"/><text fill="#000000" font-family="sans-serif" font-size="14" lengthAdjust="spacing" textLength="31" x="276.75" y="924.2285">Field</text><line style="stroke:#181818;stroke-width:0.5;" x1="224" x2="330" y1="934.5" y2="934.5"/><line style="stroke:#181818;stroke-width:0.5;" x1="224" x2="330" y1="942.5" y2="942.5"/><ellipse cx="234" cy="956.8047" fill="#84BE84" rx="3" ry="3" style="stroke:#038048;stroke-width:1.0;"/><text fill="#000000" font-family="sans-serif" font-size="14" lengthAdjust="spacing" textLength="82" x="243" y="961.0332">__str__(): str</text></g><!--class Identifier--><g id="elem_Identifier"><rect codeLine="42" fill="#F1F1F1" height="65.6094" id="Identifier" rx="2.5" ry="2.5" style="stroke:#181818;stroke-width:0.5;" width="108" x="223" y="1003.5"/><ellipse cx="247.9" cy="1019.5" fill="#ADD1B2" rx="11" ry="11" style="stroke:#181818;stroke-width:1.0;"/><path d="M250.6656,1015.375 Q250.8219,1015.1563 251.0094,1015.0469 Q251.1969,1014.9375 251.4156,1014.9375 Q251.7906,1014.9375 252.025,1015.2031 Q252.2594,1015.4531 252.2594,1016.0625 L252.2594,1017.5156 Q252.2594,1018.125 252.025,1018.3906 Q251.7906,1018.6563 251.4156,1018.6563 Q251.0719,1018.6563 250.8688,1018.4531 Q250.6656,1018.2656 250.5563,1017.75 Q250.5094,1017.3906 250.3219,1017.2031 Q249.9938,1016.8281 249.3844,1016.6094 Q248.775,1016.3906 248.15,1016.3906 Q247.3844,1016.3906 246.7438,1016.7188 Q246.1188,1017.0469 245.6188,1017.7969 Q245.1344,1018.5469 245.1344,1019.5781 L245.1344,1020.6719 Q245.1344,1021.9063 246.025,1022.7344 Q246.9156,1023.5469 248.5094,1023.5469 Q249.4469,1023.5469 250.1031,1023.2969 Q250.4938,1023.1406 250.9156,1022.7031 Q251.1813,1022.4375 251.3219,1022.3594 Q251.4781,1022.2813 251.6813,1022.2813 Q252.0094,1022.2813 252.2594,1022.5469 Q252.525,1022.7969 252.525,1023.1406 Q252.525,1023.4844 252.1813,1023.8906 Q251.6813,1024.4688 250.8844,1024.7969 Q249.8063,1025.25 248.5094,1025.25 Q246.9938,1025.25 245.7906,1024.625 Q244.8063,1024.125 244.1188,1023.0625 Q243.4313,1021.9844 243.4313,1020.7031 L243.4313,1019.5469 Q243.4313,1018.2188 244.0406,1017.0781 Q244.6656,1015.9219 245.7594,1015.3125 Q246.8531,1014.6875 248.0875,1014.6875 Q248.8219,1014.6875 249.4625,1014.8594 Q250.1188,1015.0156 250.6656,1015.375 Z " fill="#000000"/><text fill="#000000" font-family="sans-serif" font-size="14" lengthAdjust="spacing" textLength="54" x="264.1" y="1025.2285">Identifier</text><line style="stroke:#181818;stroke-width:0.5;" x1="224" x2="330" y1="1035.5" y2="1035.5"/><line style="stroke:#181818;stroke-width:0.5;" x1="224" x2="330" y1="1043.5" y2="1043.5"/><ellipse cx="234" cy="1057.8047" fill="#84BE84" rx="3" ry="3" style="stroke:#038048;stroke-width:1.0;"/><text fill="#000000" font-family="sans-serif" font-size="14" lengthAdjust="spacing" textLength="82" x="243" y="1062.0332">__str__(): str</text></g><!--class Type--><g id="elem_Type"><rect codeLine="46" fill="#F1F1F1" height="65.6094" id="Type" rx="2.5" ry="2.5" style="stroke:#181818;stroke-width:0.5;" width="108" x="223" y="1104.5"/><ellipse cx="257.8" cy="1120.5" fill="#ADD1B2" rx="11" ry="11" style="stroke:#181818;stroke-width:1.0;"/><path d="M260.5656,1116.375 Q260.7219,1116.1563 260.9094,1116.0469 Q261.0969,1115.9375 261.3156,1115.9375 Q261.6906,1115.9375 261.925,1116.2031 Q262.1594,1116.4531 262.1594,1117.0625 L262.1594,1118.5156 Q262.1594,1119.125 261.925,1119.3906 Q261.6906,1119.6563 261.3156,1119.6563 Q260.9719,1119.6563 260.7688,1119.4531 Q260.5656,1119.2656 260.4563,1118.75 Q260.4094,1118.3906 260.2219,1118.2031 Q259.8938,1117.8281 259.2844,1117.6094 Q258.675,1117.3906 258.05,1117.3906 Q257.2844,1117.3906 256.6438,1117.7188 Q256.0188,1118.0469 255.5188,1118.7969 Q255.0344,1119.5469 255.0344,1120.5781 L255.0344,1121.6719 Q255.0344,1122.9063 255.925,1123.7344 Q256.8156,1124.5469 258.4094,1124.5469 Q259.3469,1124.5469 260.0031,1124.2969 Q260.3938,1124.1406 260.8156,1123.7031 Q261.0813,1123.4375 261.2219,1123.3594 Q261.3781,1123.2813 261.5813,1123.2813 Q261.9094,1123.2813 262.1594,1123.5469 Q262.425,1123.7969 262.425,1124.1406 Q262.425,1124.4844 262.0813,1124.8906 Q261.5813,1125.4688 260.7844,1125.7969 Q259.7063,1126.25 258.4094,1126.25 Q256.8938,1126.25 255.6906,1125.625 Q254.7063,1125.125 254.0188,1124.0625 Q253.3313,1122.9844 253.3313,1121.7031 L253.3313,1120.5469 Q253.3313,1119.2188 253.9406,1118.0781 Q254.5656,1116.9219 255.6594,1116.3125 Q256.7531,1115.6875 257.9875,1115.6875 Q258.7219,1115.6875 259.3625,1115.8594 Q260.0188,1116.0156 260.5656,1116.375 Z " fill="#000000"/><text fill="#000000" font-family="sans-serif" font-size="14" lengthAdjust="spacing" textLength="32" x="276.2" y="1126.2285">Type</text><line style="stroke:#181818;stroke-width:0.5;" x1="224" x2="330" y1="1136.5" y2="1136.5"/><line style="stroke:#181818;stroke-width:0.5;" x1="224" x2="330" y1="1144.5" y2="1144.5"/><ellipse cx="234" cy="1158.8047" fill="#84BE84" rx="3" ry="3" style="stroke:#038048;stroke-width:1.0;"/><text fill="#000000" font-family="sans-serif" font-size="14" lengthAdjust="spacing" textLength="82" x="243" y="1163.0332">__str__(): str</text></g><!--class Prototype--><g id="elem_Prototype"><rect codeLine="50" fill="#F1F1F1" height="65.6094" id="Prototype" rx="2.5" ry="2.5" style="stroke:#181818;stroke-width:0.5;" width="108" x="223" y="1205.5"/><ellipse cx="244.75" cy="1221.5" fill="#ADD1B2" rx="11" ry="11" style="stroke:#181818;stroke-width:1.0;"/><path d="M247.5156,1217.375 Q247.6719,1217.1563 247.8594,1217.0469 Q248.0469,1216.9375 248.2656,1216.9375 Q248.6406,1216.9375 248.875,1217.2031 Q249.1094,1217.4531 249.1094,1218.0625 L249.1094,1219.5156 Q249.1094,1220.125 248.875,1220.3906 Q248.6406,1220.6563 248.2656,1220.6563 Q247.9219,1220.6563 247.7188,1220.4531 Q247.5156,1220.2656 247.4063,1219.75 Q247.3594,1219.3906 247.1719,1219.2031 Q246.8438,1218.8281 246.2344,1218.6094 Q245.625,1218.3906 245,1218.3906 Q244.2344,1218.3906 243.5938,1218.7188 Q242.9688,1219.0469 242.4688,1219.7969 Q241.9844,1220.5469 241.9844,1221.5781 L241.9844,1222.6719 Q241.9844,1223.9063 242.875,1224.7344 Q243.7656,1225.5469 245.3594,1225.5469 Q246.2969,1225.5469 246.9531,1225.2969 Q247.3438,1225.1406 247.7656,1224.7031 Q248.0313,1224.4375 248.1719,1224.3594 Q248.3281,1224.2813 248.5313,1224.2813 Q248.8594,1224.2813 249.1094,1224.5469 Q249.375,1224.7969 249.375,1225.1406 Q249.375,1225.4844 249.0313,1225.8906 Q248.5313,1226.4688 247.7344,1226.7969 Q246.6563,1227.25 245.3594,1227.25 Q243.8438,1227.25 242.6406,1226.625 Q241.6563,1226.125 240.9688,1225.0625 Q240.2813,1223.9844 240.2813,1222.7031 L240.2813,1221.5469 Q240.2813,1220.2188 240.8906,1219.0781 Q241.5156,1217.9219 242.6094,1217.3125 Q243.7031,1216.6875 244.9375,1216.6875 Q245.6719,1216.6875 246.3125,1216.8594 Q246.9688,1217.0156 247.5156,1217.375 Z " fill="#000000"/><text fill="#000000" font-family="sans-serif" font-size="14" lengthAdjust="spacing" textLength="61" x="260.25" y="1227.2285">Prototype</text><line style="stroke:#181818;stroke-width:0.5;" x1="224" x2="330" y1="1237.5" y2="1237.5"/><line style="stroke:#181818;stroke-width:0.5;" x1="224" x2="330" y1="1245.5" y2="1245.5"/><ellipse cx="234" cy="1259.8047" fill="#84BE84" rx="3" ry="3" style="stroke:#038048;stroke-width:1.0;"/><text fill="#000000" font-family="sans-serif" font-size="14" lengthAdjust="spacing" textLength="82" x="243" y="1264.0332">__str__(): str</text></g><!--class StaticError--><g id="elem_StaticError"><rect codeLine="54" fill="#F1F1F1" height="48" id="StaticError" rx="2.5" ry="2.5" style="stroke:#181818;stroke-width:0.5;" width="99" x="7" y="169.5"/><ellipse cx="22" cy="185.5" fill="#ADD1B2" rx="11" ry="11" style="stroke:#181818;stroke-width:1.0;"/><path d="M24.7656,181.375 Q24.9219,181.1563 25.1094,181.0469 Q25.2969,180.9375 25.5156,180.9375 Q25.8906,180.9375 26.125,181.2031 Q26.3594,181.4531 26.3594,182.0625 L26.3594,183.5156 Q26.3594,184.125 26.125,184.3906 Q25.8906,184.6563 25.5156,184.6563 Q25.1719,184.6563 24.9688,184.4531 Q24.7656,184.2656 24.6563,183.75 Q24.6094,183.3906 24.4219,183.2031 Q24.0938,182.8281 23.4844,182.6094 Q22.875,182.3906 22.25,182.3906 Q21.4844,182.3906 20.8438,182.7188 Q20.2188,183.0469 19.7188,183.7969 Q19.2344,184.5469 19.2344,185.5781 L19.2344,186.6719 Q19.2344,187.9063 20.125,188.7344 Q21.0156,189.5469 22.6094,189.5469 Q23.5469,189.5469 24.2031,189.2969 Q24.5938,189.1406 25.0156,188.7031 Q25.2813,188.4375 25.4219,188.3594 Q25.5781,188.2813 25.7813,188.2813 Q26.1094,188.2813 26.3594,188.5469 Q26.625,188.7969 26.625,189.1406 Q26.625,189.4844 26.2813,189.8906 Q25.7813,190.4688 24.9844,190.7969 Q23.9063,191.25 22.6094,191.25 Q21.0938,191.25 19.8906,190.625 Q18.9063,190.125 18.2188,189.0625 Q17.5313,187.9844 17.5313,186.7031 L17.5313,185.5469 Q17.5313,184.2188 18.1406,183.0781 Q18.7656,181.9219 19.8594,181.3125 Q20.9531,180.6875 22.1875,180.6875 Q22.9219,180.6875 23.5625,180.8594 Q24.2188,181.0156 24.7656,181.375 Z " fill="#000000"/><text fill="#000000" font-family="sans-serif" font-size="14" lengthAdjust="spacing" textLength="67" x="36" y="191.2285">StaticError</text><line style="stroke:#181818;stroke-width:0.5;" x1="8" x2="105" y1="201.5" y2="201.5"/><line style="stroke:#181818;stroke-width:0.5;" x1="8" x2="105" y1="209.5" y2="209.5"/></g><!--class Undeclared--><g id="elem_Undeclared"><rect codeLine="61" fill="#F1F1F1" height="100.8281" id="Undeclared" rx="2.5" ry="2.5" style="stroke:#181818;stroke-width:0.5;" width="108" x="223" y="7"/><ellipse cx="239.8" cy="23" fill="#ADD1B2" rx="11" ry="11" style="stroke:#181818;stroke-width:1.0;"/><path d="M242.5656,18.875 Q242.7219,18.6563 242.9094,18.5469 Q243.0969,18.4375 243.3156,18.4375 Q243.6906,18.4375 243.925,18.7031 Q244.1594,18.9531 244.1594,19.5625 L244.1594,21.0156 Q244.1594,21.625 243.925,21.8906 Q243.6906,22.1563 243.3156,22.1563 Q242.9719,22.1563 242.7688,21.9531 Q242.5656,21.7656 242.4563,21.25 Q242.4094,20.8906 242.2219,20.7031 Q241.8938,20.3281 241.2844,20.1094 Q240.675,19.8906 240.05,19.8906 Q239.2844,19.8906 238.6438,20.2188 Q238.0188,20.5469 237.5188,21.2969 Q237.0344,22.0469 237.0344,23.0781 L237.0344,24.1719 Q237.0344,25.4063 237.925,26.2344 Q238.8156,27.0469 240.4094,27.0469 Q241.3469,27.0469 242.0031,26.7969 Q242.3938,26.6406 242.8156,26.2031 Q243.0813,25.9375 243.2219,25.8594 Q243.3781,25.7813 243.5813,25.7813 Q243.9094,25.7813 244.1594,26.0469 Q244.425,26.2969 244.425,26.6406 Q244.425,26.9844 244.0813,27.3906 Q243.5813,27.9688 242.7844,28.2969 Q241.7063,28.75 240.4094,28.75 Q238.8938,28.75 237.6906,28.125 Q236.7063,27.625 236.0188,26.5625 Q235.3313,25.4844 235.3313,24.2031 L235.3313,23.0469 Q235.3313,21.7188 235.9406,20.5781 Q236.5656,19.4219 237.6594,18.8125 Q238.7531,18.1875 239.9875,18.1875 Q240.7219,18.1875 241.3625,18.3594 Q242.0188,18.5156 242.5656,18.875 Z " fill="#000000"/><text fill="#000000" font-family="sans-serif" font-size="14" lengthAdjust="spacing" textLength="72" x="254.2" y="28.7285">Undeclared</text><line style="stroke:#181818;stroke-width:0.5;" x1="224" x2="330" y1="39" y2="39"/><ellipse cx="234" cy="53.3047" fill="none" rx="3" ry="3" style="stroke:#038048;stroke-width:1.0;"/><text fill="#000000" font-family="sans-serif" font-size="14" lengthAdjust="spacing" textLength="43" x="243" y="57.5332">k: Kind</text><ellipse cx="234" cy="70.9141" fill="none" rx="3" ry="3" style="stroke:#038048;stroke-width:1.0;"/><text fill="#000000" font-family="sans-serif" font-size="14" lengthAdjust="spacing" textLength="32" x="243" y="75.1426">n: str</text><line style="stroke:#181818;stroke-width:0.5;" x1="224" x2="330" y1="82.2188" y2="82.2188"/><ellipse cx="234" cy="96.5234" fill="#84BE84" rx="3" ry="3" style="stroke:#038048;stroke-width:1.0;"/><text fill="#000000" font-family="sans-serif" font-size="14" lengthAdjust="spacing" textLength="82" x="243" y="100.752">__str__(): str</text></g><!--class Redeclared--><g id="elem_Redeclared"><rect codeLine="72" fill="#F1F1F1" height="100.8281" id="Redeclared" rx="2.5" ry="2.5" style="stroke:#181818;stroke-width:0.5;" width="108" x="223" y="143"/><ellipse cx="239.35" cy="159" fill="#ADD1B2" rx="11" ry="11" style="stroke:#181818;stroke-width:1.0;"/><path d="M242.1156,154.875 Q242.2719,154.6563 242.4594,154.5469 Q242.6469,154.4375 242.8656,154.4375 Q243.2406,154.4375 243.475,154.7031 Q243.7094,154.9531 243.7094,155.5625 L243.7094,157.0156 Q243.7094,157.625 243.475,157.8906 Q243.2406,158.1563 242.8656,158.1563 Q242.5219,158.1563 242.3188,157.9531 Q242.1156,157.7656 242.0063,157.25 Q241.9594,156.8906 241.7719,156.7031 Q241.4438,156.3281 240.8344,156.1094 Q240.225,155.8906 239.6,155.8906 Q238.8344,155.8906 238.1938,156.2188 Q237.5688,156.5469 237.0688,157.2969 Q236.5844,158.0469 236.5844,159.0781 L236.5844,160.1719 Q236.5844,161.4063 237.475,162.2344 Q238.3656,163.0469 239.9594,163.0469 Q240.8969,163.0469 241.5531,162.7969 Q241.9438,162.6406 242.3656,162.2031 Q242.6313,161.9375 242.7719,161.8594 Q242.9281,161.7813 243.1313,161.7813 Q243.4594,161.7813 243.7094,162.0469 Q243.975,162.2969 243.975,162.6406 Q243.975,162.9844 243.6313,163.3906 Q243.1313,163.9688 242.3344,164.2969 Q241.2563,164.75 239.9594,164.75 Q238.4438,164.75 237.2406,164.125 Q236.2563,163.625 235.5688,162.5625 Q234.8813,161.4844 234.8813,160.2031 L234.8813,159.0469 Q234.8813,157.7188 235.4906,156.5781 Q236.1156,155.4219 237.2094,154.8125 Q238.3031,154.1875 239.5375,154.1875 Q240.2719,154.1875 240.9125,154.3594 Q241.5688,154.5156 242.1156,154.875 Z " fill="#000000"/><text fill="#000000" font-family="sans-serif" font-size="14" lengthAdjust="spacing" textLength="73" x="253.65" y="164.7285">Redeclared</text><line style="stroke:#181818;stroke-width:0.5;" x1="224" x2="330" y1="175" y2="175"/><ellipse cx="234" cy="189.3047" fill="none" rx="3" ry="3" style="stroke:#038048;stroke-width:1.0;"/><text fill="#000000" font-family="sans-serif" font-size="14" lengthAdjust="spacing" textLength="43" x="243" y="193.5332">k: Kind</text><ellipse cx="234" cy="206.9141" fill="none" rx="3" ry="3" style="stroke:#038048;stroke-width:1.0;"/><text fill="#000000" font-family="sans-serif" font-size="14" lengthAdjust="spacing" textLength="32" x="243" y="211.1426">n: str</text><line style="stroke:#181818;stroke-width:0.5;" x1="224" x2="330" y1="218.2188" y2="218.2188"/><ellipse cx="234" cy="232.5234" fill="#84BE84" rx="3" ry="3" style="stroke:#038048;stroke-width:1.0;"/><text fill="#000000" font-family="sans-serif" font-size="14" lengthAdjust="spacing" textLength="82" x="243" y="236.752">__str__(): str</text></g><!--class TypeMismatch--><g id="elem_TypeMismatch"><rect codeLine="83" fill="#F1F1F1" height="83.2188" id="TypeMismatch" rx="2.5" ry="2.5" style="stroke:#181818;stroke-width:0.5;" width="222" x="166" y="279"/><ellipse cx="227.25" cy="295" fill="#ADD1B2" rx="11" ry="11" style="stroke:#181818;stroke-width:1.0;"/><path d="M230.0156,290.875 Q230.1719,290.6563 230.3594,290.5469 Q230.5469,290.4375 230.7656,290.4375 Q231.1406,290.4375 231.375,290.7031 Q231.6094,290.9531 231.6094,291.5625 L231.6094,293.0156 Q231.6094,293.625 231.375,293.8906 Q231.1406,294.1563 230.7656,294.1563 Q230.4219,294.1563 230.2188,293.9531 Q230.0156,293.7656 229.9063,293.25 Q229.8594,292.8906 229.6719,292.7031 Q229.3438,292.3281 228.7344,292.1094 Q228.125,291.8906 227.5,291.8906 Q226.7344,291.8906 226.0938,292.2188 Q225.4688,292.5469 224.9688,293.2969 Q224.4844,294.0469 224.4844,295.0781 L224.4844,296.1719 Q224.4844,297.4063 225.375,298.2344 Q226.2656,299.0469 227.8594,299.0469 Q228.7969,299.0469 229.4531,298.7969 Q229.8438,298.6406 230.2656,298.2031 Q230.5313,297.9375 230.6719,297.8594 Q230.8281,297.7813 231.0313,297.7813 Q231.3594,297.7813 231.6094,298.0469 Q231.875,298.2969 231.875,298.6406 Q231.875,298.9844 231.5313,299.3906 Q231.0313,299.9688 230.2344,300.2969 Q229.1563,300.75 227.8594,300.75 Q226.3438,300.75 225.1406,300.125 Q224.1563,299.625 223.4688,298.5625 Q222.7813,297.4844 222.7813,296.2031 L222.7813,295.0469 Q222.7813,293.7188 223.3906,292.5781 Q224.0156,291.4219 225.1094,290.8125 Q226.2031,290.1875 227.4375,290.1875 Q228.1719,290.1875 228.8125,290.3594 Q229.4688,290.5156 230.0156,290.875 Z " fill="#000000"/><text fill="#000000" font-family="sans-serif" font-size="14" lengthAdjust="spacing" textLength="91" x="247.75" y="300.7285">TypeMismatch</text><line style="stroke:#181818;stroke-width:0.5;" x1="167" x2="387" y1="311" y2="311"/><ellipse cx="177" cy="325.3047" fill="none" rx="3" ry="3" style="stroke:#038048;stroke-width:1.0;"/><text fill="#000000" font-family="sans-serif" font-size="14" lengthAdjust="spacing" textLength="196" x="186" y="329.5332">err: Union[AST.Expr, AST.Stmt]</text><line style="stroke:#181818;stroke-width:0.5;" x1="167" x2="387" y1="336.6094" y2="336.6094"/><ellipse cx="177" cy="350.9141" fill="#84BE84" rx="3" ry="3" style="stroke:#038048;stroke-width:1.0;"/><text fill="#000000" font-family="sans-serif" font-size="14" lengthAdjust="spacing" textLength="82" x="186" y="355.1426">__str__(): str</text></g><g id="elem_GMN28"><path d="M448,28 L448,53.5 L331.16,57.5 L448,61.5 L448,87.0547 A0,0 0 0 0 448,87.0547 L600,87.0547 A0,0 0 0 0 600,87.0547 L600,38 L590,28 L448,28 A0,0 0 0 0 448,28 " fill="#FEFFDD" style="stroke:#181818;stroke-width:0.5;"/><path d="M590,28 L590,38 L600,38 L590,28 " fill="#FEFFDD" style="stroke:#181818;stroke-width:0.5;"/><text fill="#000000" font-family="sans-serif" font-size="13" font-style="italic" lengthAdjust="spacing" textLength="8" x="454" y="46.4951">k</text><text fill="#000000" font-family="sans-serif" font-size="13" lengthAdjust="spacing" textLength="70" x="462" y="46.4951">: Kind of the</text><text fill="#000000" font-family="sans-serif" font-size="13" lengthAdjust="spacing" textLength="115" x="470" y="62.8467">undeclared identifier</text><text fill="#000000" font-family="sans-serif" font-size="13" font-style="italic" lengthAdjust="spacing" textLength="7" x="454" y="79.1982">n</text><text fill="#000000" font-family="sans-serif" font-size="13" lengthAdjust="spacing" textLength="108" x="461" y="79.1982">: Name of identifier</text></g><g id="elem_GMN31"><path d="M449.5,164 L449.5,189.5 L331.16,193.5 L449.5,197.5 L449.5,223.0547 A0,0 0 0 0 449.5,223.0547 L598.5,223.0547 A0,0 0 0 0 598.5,223.0547 L598.5,174 L588.5,164 L449.5,164 A0,0 0 0 0 449.5,164 " fill="#FEFFDD" style="stroke:#181818;stroke-width:0.5;"/><path d="M588.5,164 L588.5,174 L598.5,174 L588.5,164 " fill="#FEFFDD" style="stroke:#181818;stroke-width:0.5;"/><text fill="#000000" font-family="sans-serif" font-size="13" font-style="italic" lengthAdjust="spacing" textLength="8" x="455.5" y="182.4951">k</text><text fill="#000000" font-family="sans-serif" font-size="13" lengthAdjust="spacing" textLength="70" x="463.5" y="182.4951">: Kind of the</text><text fill="#000000" font-family="sans-serif" font-size="13" lengthAdjust="spacing" textLength="112" x="471.5" y="198.8467">redeclared identifier</text><text fill="#000000" font-family="sans-serif" font-size="13" font-style="italic" lengthAdjust="spacing" textLength="7" x="455.5" y="215.1982">n</text><text fill="#000000" font-family="sans-serif" font-size="13" lengthAdjust="spacing" textLength="108" x="462.5" y="215.1982">: Name of identifier</text></g><!--reverse link Kind to Function--><g id="link_Kind_Function"><path codeLine="8" d="M59.4075,792.3288 C62.9275,730.1588 79.38,580.78 166,481.5 C180.88,464.45 202.66,452.73 222.92,444.86 " fill="none" id="Kind-backto-Function" style="stroke:#181818;stroke-width:1.0;"/><polygon fill="none" points="58.39,810.3,65.3979,792.668,53.4171,791.9896,58.39,810.3" style="stroke:#181818;stroke-width:1.0;"/></g><!--reverse link Kind to Method--><g id="link_Kind_Method"><path codeLine="9" d="M65.4733,792.8564 C75.4933,743.9564 100.9,649.42 166,582.5 C181.56,566.51 203.09,555.01 222.98,547.04 " fill="none" id="Kind-backto-Method" style="stroke:#181818;stroke-width:1.0;"/><polygon fill="none" points="61.86,810.49,71.3511,794.0608,59.5954,791.652,61.86,810.49" style="stroke:#181818;stroke-width:1.0;"/></g><!--reverse link Kind to Parameter--><g id="link_Kind_Parameter"><path codeLine="10" d="M78.2026,794.5001 C95.6626,761.9701 122.09,719.81 166,683.5 C182.71,669.68 203.78,658.73 223,650.57 " fill="none" id="Kind-backto-Parameter" style="stroke:#181818;stroke-width:1.0;"/><polygon fill="none" points="69.69,810.36,83.4892,797.3376,72.9159,791.6626,69.69,810.36" style="stroke:#181818;stroke-width:1.0;"/></g><!--reverse link Kind to Variable--><g id="link_Kind_Variable"><path codeLine="11" d="M102.8571,813.5335 C137.5571,797.4835 180.02,777.87 222.93,758.03 " fill="none" id="Kind-backto-Variable" style="stroke:#181818;stroke-width:1.0;"/><polygon fill="none" points="86.52,821.09,105.3759,818.9792,100.3382,808.0878,86.52,821.09" style="stroke:#181818;stroke-width:1.0;"/></g><!--reverse link Kind to Constant--><g id="link_Kind_Constant"><path codeLine="12" d="M104.52,834.5 C139.22,834.5 180.02,834.5 222.93,834.5 " fill="none" id="Kind-backto-Constant" style="stroke:#181818;stroke-width:1.0;"/><polygon fill="none" points="86.52,834.5,104.52,840.5,104.52,828.5,86.52,834.5" style="stroke:#181818;stroke-width:1.0;"/></g><!--reverse link Kind to Field--><g id="link_Kind_Field"><path codeLine="13" d="M103.1949,856.1495 C124.9949,866.4495 139.17,873.1 166,885.5 C184.47,894.04 204.74,903.28 222.79,911.48 " fill="none" id="Kind-backto-Field" style="stroke:#181818;stroke-width:1.0;"/><polygon fill="none" points="86.92,848.46,100.6317,861.5745,105.758,850.7245,86.92,848.46" style="stroke:#181818;stroke-width:1.0;"/></g><!--reverse link Kind to Identifier--><g id="link_Kind_Identifier"><path codeLine="14" d="M77.8768,874.4809 C95.2068,907.2409 121.69,950.03 166,986.5 C182.68,1000.23 203.75,1011.01 222.97,1018.98 " fill="none" id="Kind-backto-Identifier" style="stroke:#181818;stroke-width:1.0;"/><polygon fill="none" points="69.46,858.57,72.5732,877.2865,83.1805,871.6753,69.46,858.57" style="stroke:#181818;stroke-width:1.0;"/></g><!--reverse link Kind to Type--><g id="link_Kind_Type"><path codeLine="15" d="M65.3429,876.2959 C75.2429,925.4659 100.48,1020.56 166,1087.5 C181.55,1103.39 203.09,1114.7 222.98,1122.49 " fill="none" id="Kind-backto-Type" style="stroke:#181818;stroke-width:1.0;"/><polygon fill="none" points="61.79,858.65,59.4609,877.4802,71.2248,875.1116,61.79,858.65" style="stroke:#181818;stroke-width:1.0;"/></g><!--reverse link Kind to Prototype--><g id="link_Kind_Prototype"><path codeLine="16" d="M59.2904,876.7838 C62.6604,939.2038 78.82,1089.26 166,1188.5 C180.88,1205.44 202.66,1216.97 222.92,1224.65 " fill="none" id="Kind-backto-Prototype" style="stroke:#181818;stroke-width:1.0;"/><polygon fill="none" points="58.32,858.81,53.2991,877.1073,65.2817,876.4604,58.32,858.81" style="stroke:#181818;stroke-width:1.0;"/></g><!--reverse link StaticError to Undeclared--><g id="link_StaticError_Undeclared"><path codeLine="57" d="M111.1216,159.7944 C131.8616,146.7644 142.69,140.01 166,125.5 C184.49,113.99 204.76,101.44 222.81,90.29 " fill="none" id="StaticError-backto-Undeclared" style="stroke:#181818;stroke-width:1.0;"/><polygon fill="none" points="95.88,169.37,114.3135,164.8749,107.9298,154.7138,95.88,169.37" style="stroke:#181818;stroke-width:1.0;"/></g><!--reverse link StaticError to Redeclared--><g id="link_StaticError_Redeclared"><path codeLine="58" d="M124.26,193.5 C158.85,193.5 187.25,193.5 222.8,193.5 " fill="none" id="StaticError-backto-Redeclared" style="stroke:#181818;stroke-width:1.0;"/><polygon fill="none" points="106.26,193.5,124.26,199.5,124.26,187.5,106.26,193.5" style="stroke:#181818;stroke-width:1.0;"/></g><!--reverse link StaticError to TypeMismatch--><g id="link_StaticError_TypeMismatch"><path codeLine="59" d="M109.943,227.4297 C130.703,240.7097 141.97,247.55 166,261.5 C175.93,267.27 186.47,273.18 196.93,278.92 " fill="none" id="StaticError-backto-TypeMismatch" style="stroke:#181818;stroke-width:1.0;"/><polygon fill="none" points="94.78,217.73,106.7098,232.484,113.1762,222.3753,94.78,217.73" style="stroke:#181818;stroke-width:1.0;"/></g><!--SRC=[jPDDIyGm48Rl-HNZJT6rzyMBo0eYAukxUX4fiPdQiDracSw2elvtyq5DH9TSD8UIldbdyinqUg2mrGP1IPPDBuS1mbE87bi6ja3wkMDGch1XROqGoNcjZO8tyI54s9szJoPmkJFHbwGvScTL9YmaoGqoKgRTIzBogSTCkh1cO6aupwwnppDTAJIiM_qjrUfrcwTPa6NBNXCHUqHqwE3MSLqFJ7LzU3G5j_7bH5_aBhc-YYaPnmfBlh7iaY_qecHA3IevVTUAjOwjB1cNB5atCo9BSK1o8NoLEwFGUGdLpxDRt7_cCUTws4XkkdmMKxwHRJqD0nfVJ0Jy7TfOnZZdmL1LwwgAmM1Ru0uXw7xjqZKwpLwCCZxgnWs3ZyfEqUNnL-IugSH_nINy6zoywoCm4arTszsFz72-N9tENhPq0dwtv0q_xc7_1000]--></g></svg>