<?xml version="1.0" encoding="us-ascii" standalone="no"?><svg xmlns="http://www.w3.org/2000/svg" xmlns:xlink="http://www.w3.org/1999/xlink" contentStyleType="text/css" height="222px" preserveAspectRatio="none" style="width:2181px;height:222px;background:#FFFFFF;" version="1.1" viewBox="0 0 2181 222" width="2181px" zoomAndPan="magnify"><defs/><g><!--class Kind--><g id="elem_Kind"><rect codeLine="5" fill="#F1F1F1" height="48" id="Kind" rx="2.5" ry="2.5" style="stroke:#181818;stroke-width:0.5;" width="60" x="1518" y="7"/><ellipse cx="1533" cy="23" fill="#ADD1B2" rx="11" ry="11" style="stroke:#181818;stroke-width:1.0;"/><path d="M1535.7656,18.875 Q1535.9219,18.6563 1536.1094,18.5469 Q1536.2969,18.4375 1536.5156,18.4375 Q1536.8906,18.4375 1537.125,18.7031 Q1537.3594,18.9531 1537.3594,19.5625 L1537.3594,21.0156 Q1537.3594,21.625 1537.125,21.8906 Q1536.8906,22.1563 1536.5156,22.1563 Q1536.1719,22.1563 1535.9688,21.9531 Q1535.7656,21.7656 1535.6563,21.25 Q1535.6094,20.8906 1535.4219,20.7031 Q1535.0938,20.3281 1534.4844,20.1094 Q1533.875,19.8906 1533.25,19.8906 Q1532.4844,19.8906 1531.8438,20.2188 Q1531.2188,20.5469 1530.7188,21.2969 Q1530.2344,22.0469 1530.2344,23.0781 L1530.2344,24.1719 Q1530.2344,25.4063 1531.125,26.2344 Q1532.0156,27.0469 1533.6094,27.0469 Q1534.5469,27.0469 1535.2031,26.7969 Q1535.5938,26.6406 1536.0156,26.2031 Q1536.2813,25.9375 1536.4219,25.8594 Q1536.5781,25.7813 1536.7813,25.7813 Q1537.1094,25.7813 1537.3594,26.0469 Q1537.625,26.2969 1537.625,26.6406 Q1537.625,26.9844 1537.2813,27.3906 Q1536.7813,27.9688 1535.9844,28.2969 Q1534.9063,28.75 1533.6094,28.75 Q1532.0938,28.75 1530.8906,28.125 Q1529.9063,27.625 1529.2188,26.5625 Q1528.5313,25.4844 1528.5313,24.2031 L1528.5313,23.0469 Q1528.5313,21.7188 1529.1406,20.5781 Q1529.7656,19.4219 1530.8594,18.8125 Q1531.9531,18.1875 1533.1875,18.1875 Q1533.9219,18.1875 1534.5625,18.3594 Q1535.2188,18.5156 1535.7656,18.875 Z " fill="#000000"/><text fill="#000000" font-family="sans-serif" font-size="14" lengthAdjust="spacing" textLength="28" x="1547" y="28.7285">Kind</text><line style="stroke:#181818;stroke-width:0.5;" x1="1519" x2="1577" y1="39" y2="39"/><line style="stroke:#181818;stroke-width:0.5;" x1="1519" x2="1577" y1="47" y2="47"/></g><!--class Function--><g id="elem_Function"><rect codeLine="18" fill="#F1F1F1" height="65.6094" id="Function" rx="2.5" ry="2.5" style="stroke:#181818;stroke-width:0.5;" width="108" x="922" y="132.5"/><ellipse cx="946.45" cy="148.5" fill="#ADD1B2" rx="11" ry="11" style="stroke:#181818;stroke-width:1.0;"/><path d="M949.2156,144.375 Q949.3719,144.1563 949.5594,144.0469 Q949.7469,143.9375 949.9656,143.9375 Q950.3406,143.9375 950.575,144.2031 Q950.8094,144.4531 950.8094,145.0625 L950.8094,146.5156 Q950.8094,147.125 950.575,147.3906 Q950.3406,147.6563 949.9656,147.6563 Q949.6219,147.6563 949.4188,147.4531 Q949.2156,147.2656 949.1063,146.75 Q949.0594,146.3906 948.8719,146.2031 Q948.5438,145.8281 947.9344,145.6094 Q947.325,145.3906 946.7,145.3906 Q945.9344,145.3906 945.2938,145.7188 Q944.6688,146.0469 944.1688,146.7969 Q943.6844,147.5469 943.6844,148.5781 L943.6844,149.6719 Q943.6844,150.9063 944.575,151.7344 Q945.4656,152.5469 947.0594,152.5469 Q947.9969,152.5469 948.6531,152.2969 Q949.0438,152.1406 949.4656,151.7031 Q949.7313,151.4375 949.8719,151.3594 Q950.0281,151.2813 950.2313,151.2813 Q950.5594,151.2813 950.8094,151.5469 Q951.075,151.7969 951.075,152.1406 Q951.075,152.4844 950.7313,152.8906 Q950.2313,153.4688 949.4344,153.7969 Q948.3563,154.25 947.0594,154.25 Q945.5438,154.25 944.3406,153.625 Q943.3563,153.125 942.6688,152.0625 Q941.9813,150.9844 941.9813,149.7031 L941.9813,148.5469 Q941.9813,147.2188 942.5906,146.0781 Q943.2156,144.9219 944.3094,144.3125 Q945.4031,143.6875 946.6375,143.6875 Q947.3719,143.6875 948.0125,143.8594 Q948.6688,144.0156 949.2156,144.375 Z " fill="#000000"/><text fill="#000000" font-family="sans-serif" font-size="14" lengthAdjust="spacing" textLength="55" x="962.55" y="154.2285">Function</text><line style="stroke:#181818;stroke-width:0.5;" x1="923" x2="1029" y1="164.5" y2="164.5"/><line style="stroke:#181818;stroke-width:0.5;" x1="923" x2="1029" y1="172.5" y2="172.5"/><ellipse cx="933" cy="186.8047" fill="#84BE84" rx="3" ry="3" style="stroke:#038048;stroke-width:1.0;"/><text fill="#000000" font-family="sans-serif" font-size="14" lengthAdjust="spacing" textLength="82" x="942" y="191.0332">__str__(): str</text></g><!--class Method--><g id="elem_Method"><rect codeLine="22" fill="#F1F1F1" height="65.6094" id="Method" rx="2.5" ry="2.5" style="stroke:#181818;stroke-width:0.5;" width="108" x="1065" y="132.5"/><ellipse cx="1093.05" cy="148.5" fill="#ADD1B2" rx="11" ry="11" style="stroke:#181818;stroke-width:1.0;"/><path d="M1095.8156,144.375 Q1095.9719,144.1563 1096.1594,144.0469 Q1096.3469,143.9375 1096.5656,143.9375 Q1096.9406,143.9375 1097.175,144.2031 Q1097.4094,144.4531 1097.4094,145.0625 L1097.4094,146.5156 Q1097.4094,147.125 1097.175,147.3906 Q1096.9406,147.6563 1096.5656,147.6563 Q1096.2219,147.6563 1096.0188,147.4531 Q1095.8156,147.2656 1095.7063,146.75 Q1095.6594,146.3906 1095.4719,146.2031 Q1095.1438,145.8281 1094.5344,145.6094 Q1093.925,145.3906 1093.3,145.3906 Q1092.5344,145.3906 1091.8938,145.7188 Q1091.2688,146.0469 1090.7688,146.7969 Q1090.2844,147.5469 1090.2844,148.5781 L1090.2844,149.6719 Q1090.2844,150.9063 1091.175,151.7344 Q1092.0656,152.5469 1093.6594,152.5469 Q1094.5969,152.5469 1095.2531,152.2969 Q1095.6438,152.1406 1096.0656,151.7031 Q1096.3313,151.4375 1096.4719,151.3594 Q1096.6281,151.2813 1096.8313,151.2813 Q1097.1594,151.2813 1097.4094,151.5469 Q1097.675,151.7969 1097.675,152.1406 Q1097.675,152.4844 1097.3313,152.8906 Q1096.8313,153.4688 1096.0344,153.7969 Q1094.9563,154.25 1093.6594,154.25 Q1092.1438,154.25 1090.9406,153.625 Q1089.9563,153.125 1089.2688,152.0625 Q1088.5813,150.9844 1088.5813,149.7031 L1088.5813,148.5469 Q1088.5813,147.2188 1089.1906,146.0781 Q1089.8156,144.9219 1090.9094,144.3125 Q1092.0031,143.6875 1093.2375,143.6875 Q1093.9719,143.6875 1094.6125,143.8594 Q1095.2688,144.0156 1095.8156,144.375 Z " fill="#000000"/><text fill="#000000" font-family="sans-serif" font-size="14" lengthAdjust="spacing" textLength="47" x="1109.95" y="154.2285">Method</text><line style="stroke:#181818;stroke-width:0.5;" x1="1066" x2="1172" y1="164.5" y2="164.5"/><line style="stroke:#181818;stroke-width:0.5;" x1="1066" x2="1172" y1="172.5" y2="172.5"/><ellipse cx="1076" cy="186.8047" fill="#84BE84" rx="3" ry="3" style="stroke:#038048;stroke-width:1.0;"/><text fill="#000000" font-family="sans-serif" font-size="14" lengthAdjust="spacing" textLength="82" x="1085" y="191.0332">__str__(): str</text></g><!--class Parameter--><g id="elem_Parameter"><rect codeLine="26" fill="#F1F1F1" height="65.6094" id="Parameter" rx="2.5" ry="2.5" style="stroke:#181818;stroke-width:0.5;" width="108" x="1208" y="132.5"/><ellipse cx="1227.5" cy="148.5" fill="#ADD1B2" rx="11" ry="11" style="stroke:#181818;stroke-width:1.0;"/><path d="M1230.2656,144.375 Q1230.4219,144.1563 1230.6094,144.0469 Q1230.7969,143.9375 1231.0156,143.9375 Q1231.3906,143.9375 1231.625,144.2031 Q1231.8594,144.4531 1231.8594,145.0625 L1231.8594,146.5156 Q1231.8594,147.125 1231.625,147.3906 Q1231.3906,147.6563 1231.0156,147.6563 Q1230.6719,147.6563 1230.4688,147.4531 Q1230.2656,147.2656 1230.1563,146.75 Q1230.1094,146.3906 1229.9219,146.2031 Q1229.5938,145.8281 1228.9844,145.6094 Q1228.375,145.3906 1227.75,145.3906 Q1226.9844,145.3906 1226.3438,145.7188 Q1225.7188,146.0469 1225.2188,146.7969 Q1224.7344,147.5469 1224.7344,148.5781 L1224.7344,149.6719 Q1224.7344,150.9063 1225.625,151.7344 Q1226.5156,152.5469 1228.1094,152.5469 Q1229.0469,152.5469 1229.7031,152.2969 Q1230.0938,152.1406 1230.5156,151.7031 Q1230.7813,151.4375 1230.9219,151.3594 Q1231.0781,151.2813 1231.2813,151.2813 Q1231.6094,151.2813 1231.8594,151.5469 Q1232.125,151.7969 1232.125,152.1406 Q1232.125,152.4844 1231.7813,152.8906 Q1231.2813,153.4688 1230.4844,153.7969 Q1229.4063,154.25 1228.1094,154.25 Q1226.5938,154.25 1225.3906,153.625 Q1224.4063,153.125 1223.7188,152.0625 Q1223.0313,150.9844 1223.0313,149.7031 L1223.0313,148.5469 Q1223.0313,147.2188 1223.6406,146.0781 Q1224.2656,144.9219 1225.3594,144.3125 Q1226.4531,143.6875 1227.6875,143.6875 Q1228.4219,143.6875 1229.0625,143.8594 Q1229.7188,144.0156 1230.2656,144.375 Z " fill="#000000"/><text fill="#000000" font-family="sans-serif" font-size="14" lengthAdjust="spacing" textLength="66" x="1242.5" y="154.2285">Parameter</text><line style="stroke:#181818;stroke-width:0.5;" x1="1209" x2="1315" y1="164.5" y2="164.5"/><line style="stroke:#181818;stroke-width:0.5;" x1="1209" x2="1315" y1="172.5" y2="172.5"/><ellipse cx="1219" cy="186.8047" fill="#84BE84" rx="3" ry="3" style="stroke:#038048;stroke-width:1.0;"/><text fill="#000000" font-family="sans-serif" font-size="14" lengthAdjust="spacing" textLength="82" x="1228" y="191.0332">__str__(): str</text></g><!--class Variable--><g id="elem_Variable"><rect codeLine="30" fill="#F1F1F1" height="65.6094" id="Variable" rx="2.5" ry="2.5" style="stroke:#181818;stroke-width:0.5;" width="108" x="1351" y="132.5"/><ellipse cx="1376.8" cy="148.5" fill="#ADD1B2" rx="11" ry="11" style="stroke:#181818;stroke-width:1.0;"/><path d="M1379.5656,144.375 Q1379.7219,144.1563 1379.9094,144.0469 Q1380.0969,143.9375 1380.3156,143.9375 Q1380.6906,143.9375 1380.925,144.2031 Q1381.1594,144.4531 1381.1594,145.0625 L1381.1594,146.5156 Q1381.1594,147.125 1380.925,147.3906 Q1380.6906,147.6563 1380.3156,147.6563 Q1379.9719,147.6563 1379.7688,147.4531 Q1379.5656,147.2656 1379.4563,146.75 Q1379.4094,146.3906 1379.2219,146.2031 Q1378.8938,145.8281 1378.2844,145.6094 Q1377.675,145.3906 1377.05,145.3906 Q1376.2844,145.3906 1375.6438,145.7188 Q1375.0188,146.0469 1374.5188,146.7969 Q1374.0344,147.5469 1374.0344,148.5781 L1374.0344,149.6719 Q1374.0344,150.9063 1374.925,151.7344 Q1375.8156,152.5469 1377.4094,152.5469 Q1378.3469,152.5469 1379.0031,152.2969 Q1379.3938,152.1406 1379.8156,151.7031 Q1380.0813,151.4375 1380.2219,151.3594 Q1380.3781,151.2813 1380.5813,151.2813 Q1380.9094,151.2813 1381.1594,151.5469 Q1381.425,151.7969 1381.425,152.1406 Q1381.425,152.4844 1381.0813,152.8906 Q1380.5813,153.4688 1379.7844,153.7969 Q1378.7063,154.25 1377.4094,154.25 Q1375.8938,154.25 1374.6906,153.625 Q1373.7063,153.125 1373.0188,152.0625 Q1372.3313,150.9844 1372.3313,149.7031 L1372.3313,148.5469 Q1372.3313,147.2188 1372.9406,146.0781 Q1373.5656,144.9219 1374.6594,144.3125 Q1375.7531,143.6875 1376.9875,143.6875 Q1377.7219,143.6875 1378.3625,143.8594 Q1379.0188,144.0156 1379.5656,144.375 Z " fill="#000000"/><text fill="#000000" font-family="sans-serif" font-size="14" lengthAdjust="spacing" textLength="52" x="1393.2" y="154.2285">Variable</text><line style="stroke:#181818;stroke-width:0.5;" x1="1352" x2="1458" y1="164.5" y2="164.5"/><line style="stroke:#181818;stroke-width:0.5;" x1="1352" x2="1458" y1="172.5" y2="172.5"/><ellipse cx="1362" cy="186.8047" fill="#84BE84" rx="3" ry="3" style="stroke:#038048;stroke-width:1.0;"/><text fill="#000000" font-family="sans-serif" font-size="14" lengthAdjust="spacing" textLength="82" x="1371" y="191.0332">__str__(): str</text></g><!--class Constant--><g id="elem_Constant"><rect codeLine="34" fill="#F1F1F1" height="65.6094" id="Constant" rx="2.5" ry="2.5" style="stroke:#181818;stroke-width:0.5;" width="108" x="1494" y="132.5"/><ellipse cx="1517.55" cy="148.5" fill="#ADD1B2" rx="11" ry="11" style="stroke:#181818;stroke-width:1.0;"/><path d="M1520.3156,144.375 Q1520.4719,144.1563 1520.6594,144.0469 Q1520.8469,143.9375 1521.0656,143.9375 Q1521.4406,143.9375 1521.675,144.2031 Q1521.9094,144.4531 1521.9094,145.0625 L1521.9094,146.5156 Q1521.9094,147.125 1521.675,147.3906 Q1521.4406,147.6563 1521.0656,147.6563 Q1520.7219,147.6563 1520.5188,147.4531 Q1520.3156,147.2656 1520.2063,146.75 Q1520.1594,146.3906 1519.9719,146.2031 Q1519.6438,145.8281 1519.0344,145.6094 Q1518.425,145.3906 1517.8,145.3906 Q1517.0344,145.3906 1516.3938,145.7188 Q1515.7688,146.0469 1515.2688,146.7969 Q1514.7844,147.5469 1514.7844,148.5781 L1514.7844,149.6719 Q1514.7844,150.9063 1515.675,151.7344 Q1516.5656,152.5469 1518.1594,152.5469 Q1519.0969,152.5469 1519.7531,152.2969 Q1520.1438,152.1406 1520.5656,151.7031 Q1520.8313,151.4375 1520.9719,151.3594 Q1521.1281,151.2813 1521.3313,151.2813 Q1521.6594,151.2813 1521.9094,151.5469 Q1522.175,151.7969 1522.175,152.1406 Q1522.175,152.4844 1521.8313,152.8906 Q1521.3313,153.4688 1520.5344,153.7969 Q1519.4563,154.25 1518.1594,154.25 Q1516.6438,154.25 1515.4406,153.625 Q1514.4563,153.125 1513.7688,152.0625 Q1513.0813,150.9844 1513.0813,149.7031 L1513.0813,148.5469 Q1513.0813,147.2188 1513.6906,146.0781 Q1514.3156,144.9219 1515.4094,144.3125 Q1516.5031,143.6875 1517.7375,143.6875 Q1518.4719,143.6875 1519.1125,143.8594 Q1519.7688,144.0156 1520.3156,144.375 Z " fill="#000000"/><text fill="#000000" font-family="sans-serif" font-size="14" lengthAdjust="spacing" textLength="57" x="1533.45" y="154.2285">Constant</text><line style="stroke:#181818;stroke-width:0.5;" x1="1495" x2="1601" y1="164.5" y2="164.5"/><line style="stroke:#181818;stroke-width:0.5;" x1="1495" x2="1601" y1="172.5" y2="172.5"/><ellipse cx="1505" cy="186.8047" fill="#84BE84" rx="3" ry="3" style="stroke:#038048;stroke-width:1.0;"/><text fill="#000000" font-family="sans-serif" font-size="14" lengthAdjust="spacing" textLength="82" x="1514" y="191.0332">__str__(): str</text></g><!--class Field--><g id="elem_Field"><rect codeLine="38" fill="#F1F1F1" height="65.6094" id="Field" rx="2.5" ry="2.5" style="stroke:#181818;stroke-width:0.5;" width="108" x="1637" y="132.5"/><ellipse cx="1672.25" cy="148.5" fill="#ADD1B2" rx="11" ry="11" style="stroke:#181818;stroke-width:1.0;"/><path d="M1675.0156,144.375 Q1675.1719,144.1563 1675.3594,144.0469 Q1675.5469,143.9375 1675.7656,143.9375 Q1676.1406,143.9375 1676.375,144.2031 Q1676.6094,144.4531 1676.6094,145.0625 L1676.6094,146.5156 Q1676.6094,147.125 1676.375,147.3906 Q1676.1406,147.6563 1675.7656,147.6563 Q1675.4219,147.6563 1675.2188,147.4531 Q1675.0156,147.2656 1674.9063,146.75 Q1674.8594,146.3906 1674.6719,146.2031 Q1674.3438,145.8281 1673.7344,145.6094 Q1673.125,145.3906 1672.5,145.3906 Q1671.7344,145.3906 1671.0938,145.7188 Q1670.4688,146.0469 1669.9688,146.7969 Q1669.4844,147.5469 1669.4844,148.5781 L1669.4844,149.6719 Q1669.4844,150.9063 1670.375,151.7344 Q1671.2656,152.5469 1672.8594,152.5469 Q1673.7969,152.5469 1674.4531,152.2969 Q1674.8438,152.1406 1675.2656,151.7031 Q1675.5313,151.4375 1675.6719,151.3594 Q1675.8281,151.2813 1676.0313,151.2813 Q1676.3594,151.2813 1676.6094,151.5469 Q1676.875,151.7969 1676.875,152.1406 Q1676.875,152.4844 1676.5313,152.8906 Q1676.0313,153.4688 1675.2344,153.7969 Q1674.1563,154.25 1672.8594,154.25 Q1671.3438,154.25 1670.1406,153.625 Q1669.1563,153.125 1668.4688,152.0625 Q1667.7813,150.9844 1667.7813,149.7031 L1667.7813,148.5469 Q1667.7813,147.2188 1668.3906,146.0781 Q1669.0156,144.9219 1670.1094,144.3125 Q1671.2031,143.6875 1672.4375,143.6875 Q1673.1719,143.6875 1673.8125,143.8594 Q1674.4688,144.0156 1675.0156,144.375 Z " fill="#000000"/><text fill="#000000" font-family="sans-serif" font-size="14" lengthAdjust="spacing" textLength="31" x="1690.75" y="154.2285">Field</text><line style="stroke:#181818;stroke-width:0.5;" x1="1638" x2="1744" y1="164.5" y2="164.5"/><line style="stroke:#181818;stroke-width:0.5;" x1="1638" x2="1744" y1="172.5" y2="172.5"/><ellipse cx="1648" cy="186.8047" fill="#84BE84" rx="3" ry="3" style="stroke:#038048;stroke-width:1.0;"/><text fill="#000000" font-family="sans-serif" font-size="14" lengthAdjust="spacing" textLength="82" x="1657" y="191.0332">__str__(): str</text></g><!--class Identifier--><g id="elem_Identifier"><rect codeLine="42" fill="#F1F1F1" height="65.6094" id="Identifier" rx="2.5" ry="2.5" style="stroke:#181818;stroke-width:0.5;" width="108" x="1780" y="132.5"/><ellipse cx="1804.9" cy="148.5" fill="#ADD1B2" rx="11" ry="11" style="stroke:#181818;stroke-width:1.0;"/><path d="M1807.6656,144.375 Q1807.8219,144.1563 1808.0094,144.0469 Q1808.1969,143.9375 1808.4156,143.9375 Q1808.7906,143.9375 1809.025,144.2031 Q1809.2594,144.4531 1809.2594,145.0625 L1809.2594,146.5156 Q1809.2594,147.125 1809.025,147.3906 Q1808.7906,147.6563 1808.4156,147.6563 Q1808.0719,147.6563 1807.8688,147.4531 Q1807.6656,147.2656 1807.5563,146.75 Q1807.5094,146.3906 1807.3219,146.2031 Q1806.9938,145.8281 1806.3844,145.6094 Q1805.775,145.3906 1805.15,145.3906 Q1804.3844,145.3906 1803.7438,145.7188 Q1803.1188,146.0469 1802.6188,146.7969 Q1802.1344,147.5469 1802.1344,148.5781 L1802.1344,149.6719 Q1802.1344,150.9063 1803.025,151.7344 Q1803.9156,152.5469 1805.5094,152.5469 Q1806.4469,152.5469 1807.1031,152.2969 Q1807.4938,152.1406 1807.9156,151.7031 Q1808.1813,151.4375 1808.3219,151.3594 Q1808.4781,151.2813 1808.6813,151.2813 Q1809.0094,151.2813 1809.2594,151.5469 Q1809.525,151.7969 1809.525,152.1406 Q1809.525,152.4844 1809.1813,152.8906 Q1808.6813,153.4688 1807.8844,153.7969 Q1806.8063,154.25 1805.5094,154.25 Q1803.9938,154.25 1802.7906,153.625 Q1801.8063,153.125 1801.1188,152.0625 Q1800.4313,150.9844 1800.4313,149.7031 L1800.4313,148.5469 Q1800.4313,147.2188 1801.0406,146.0781 Q1801.6656,144.9219 1802.7594,144.3125 Q1803.8531,143.6875 1805.0875,143.6875 Q1805.8219,143.6875 1806.4625,143.8594 Q1807.1188,144.0156 1807.6656,144.375 Z " fill="#000000"/><text fill="#000000" font-family="sans-serif" font-size="14" lengthAdjust="spacing" textLength="54" x="1821.1" y="154.2285">Identifier</text><line style="stroke:#181818;stroke-width:0.5;" x1="1781" x2="1887" y1="164.5" y2="164.5"/><line style="stroke:#181818;stroke-width:0.5;" x1="1781" x2="1887" y1="172.5" y2="172.5"/><ellipse cx="1791" cy="186.8047" fill="#84BE84" rx="3" ry="3" style="stroke:#038048;stroke-width:1.0;"/><text fill="#000000" font-family="sans-serif" font-size="14" lengthAdjust="spacing" textLength="82" x="1800" y="191.0332">__str__(): str</text></g><!--class Type--><g id="elem_Type"><rect codeLine="46" fill="#F1F1F1" height="65.6094" id="Type" rx="2.5" ry="2.5" style="stroke:#181818;stroke-width:0.5;" width="108" x="1923" y="132.5"/><ellipse cx="1957.8" cy="148.5" fill="#ADD1B2" rx="11" ry="11" style="stroke:#181818;stroke-width:1.0;"/><path d="M1960.5656,144.375 Q1960.7219,144.1563 1960.9094,144.0469 Q1961.0969,143.9375 1961.3156,143.9375 Q1961.6906,143.9375 1961.925,144.2031 Q1962.1594,144.4531 1962.1594,145.0625 L1962.1594,146.5156 Q1962.1594,147.125 1961.925,147.3906 Q1961.6906,147.6563 1961.3156,147.6563 Q1960.9719,147.6563 1960.7688,147.4531 Q1960.5656,147.2656 1960.4563,146.75 Q1960.4094,146.3906 1960.2219,146.2031 Q1959.8938,145.8281 1959.2844,145.6094 Q1958.675,145.3906 1958.05,145.3906 Q1957.2844,145.3906 1956.6438,145.7188 Q1956.0188,146.0469 1955.5188,146.7969 Q1955.0344,147.5469 1955.0344,148.5781 L1955.0344,149.6719 Q1955.0344,150.9063 1955.925,151.7344 Q1956.8156,152.5469 1958.4094,152.5469 Q1959.3469,152.5469 1960.0031,152.2969 Q1960.3938,152.1406 1960.8156,151.7031 Q1961.0813,151.4375 1961.2219,151.3594 Q1961.3781,151.2813 1961.5813,151.2813 Q1961.9094,151.2813 1962.1594,151.5469 Q1962.425,151.7969 1962.425,152.1406 Q1962.425,152.4844 1962.0813,152.8906 Q1961.5813,153.4688 1960.7844,153.7969 Q1959.7063,154.25 1958.4094,154.25 Q1956.8938,154.25 1955.6906,153.625 Q1954.7063,153.125 1954.0188,152.0625 Q1953.3313,150.9844 1953.3313,149.7031 L1953.3313,148.5469 Q1953.3313,147.2188 1953.9406,146.0781 Q1954.5656,144.9219 1955.6594,144.3125 Q1956.7531,143.6875 1957.9875,143.6875 Q1958.7219,143.6875 1959.3625,143.8594 Q1960.0188,144.0156 1960.5656,144.375 Z " fill="#000000"/><text fill="#000000" font-family="sans-serif" font-size="14" lengthAdjust="spacing" textLength="32" x="1976.2" y="154.2285">Type</text><line style="stroke:#181818;stroke-width:0.5;" x1="1924" x2="2030" y1="164.5" y2="164.5"/><line style="stroke:#181818;stroke-width:0.5;" x1="1924" x2="2030" y1="172.5" y2="172.5"/><ellipse cx="1934" cy="186.8047" fill="#84BE84" rx="3" ry="3" style="stroke:#038048;stroke-width:1.0;"/><text fill="#000000" font-family="sans-serif" font-size="14" lengthAdjust="spacing" textLength="82" x="1943" y="191.0332">__str__(): str</text></g><!--class Prototype--><g id="elem_Prototype"><rect codeLine="50" fill="#F1F1F1" height="65.6094" id="Prototype" rx="2.5" ry="2.5" style="stroke:#181818;stroke-width:0.5;" width="108" x="2066" y="132.5"/><ellipse cx="2087.75" cy="148.5" fill="#ADD1B2" rx="11" ry="11" style="stroke:#181818;stroke-width:1.0;"/><path d="M2090.5156,144.375 Q2090.6719,144.1563 2090.8594,144.0469 Q2091.0469,143.9375 2091.2656,143.9375 Q2091.6406,143.9375 2091.875,144.2031 Q2092.1094,144.4531 2092.1094,145.0625 L2092.1094,146.5156 Q2092.1094,147.125 2091.875,147.3906 Q2091.6406,147.6563 2091.2656,147.6563 Q2090.9219,147.6563 2090.7188,147.4531 Q2090.5156,147.2656 2090.4063,146.75 Q2090.3594,146.3906 2090.1719,146.2031 Q2089.8438,145.8281 2089.2344,145.6094 Q2088.625,145.3906 2088,145.3906 Q2087.2344,145.3906 2086.5938,145.7188 Q2085.9688,146.0469 2085.4688,146.7969 Q2084.9844,147.5469 2084.9844,148.5781 L2084.9844,149.6719 Q2084.9844,150.9063 2085.875,151.7344 Q2086.7656,152.5469 2088.3594,152.5469 Q2089.2969,152.5469 2089.9531,152.2969 Q2090.3438,152.1406 2090.7656,151.7031 Q2091.0313,151.4375 2091.1719,151.3594 Q2091.3281,151.2813 2091.5313,151.2813 Q2091.8594,151.2813 2092.1094,151.5469 Q2092.375,151.7969 2092.375,152.1406 Q2092.375,152.4844 2092.0313,152.8906 Q2091.5313,153.4688 2090.7344,153.7969 Q2089.6563,154.25 2088.3594,154.25 Q2086.8438,154.25 2085.6406,153.625 Q2084.6563,153.125 2083.9688,152.0625 Q2083.2813,150.9844 2083.2813,149.7031 L2083.2813,148.5469 Q2083.2813,147.2188 2083.8906,146.0781 Q2084.5156,144.9219 2085.6094,144.3125 Q2086.7031,143.6875 2087.9375,143.6875 Q2088.6719,143.6875 2089.3125,143.8594 Q2089.9688,144.0156 2090.5156,144.375 Z " fill="#000000"/><text fill="#000000" font-family="sans-serif" font-size="14" lengthAdjust="spacing" textLength="61" x="2103.25" y="154.2285">Prototype</text><line style="stroke:#181818;stroke-width:0.5;" x1="2067" x2="2173" y1="164.5" y2="164.5"/><line style="stroke:#181818;stroke-width:0.5;" x1="2067" x2="2173" y1="172.5" y2="172.5"/><ellipse cx="2077" cy="186.8047" fill="#84BE84" rx="3" ry="3" style="stroke:#038048;stroke-width:1.0;"/><text fill="#000000" font-family="sans-serif" font-size="14" lengthAdjust="spacing" textLength="82" x="2086" y="191.0332">__str__(): str</text></g><!--class StaticError--><g id="elem_StaticError"><rect codeLine="54" fill="#F1F1F1" height="48" id="StaticError" rx="2.5" ry="2.5" style="stroke:#181818;stroke-width:0.5;" width="99" x="341.5" y="7"/><ellipse cx="356.5" cy="23" fill="#ADD1B2" rx="11" ry="11" style="stroke:#181818;stroke-width:1.0;"/><path d="M359.2656,18.875 Q359.4219,18.6563 359.6094,18.5469 Q359.7969,18.4375 360.0156,18.4375 Q360.3906,18.4375 360.625,18.7031 Q360.8594,18.9531 360.8594,19.5625 L360.8594,21.0156 Q360.8594,21.625 360.625,21.8906 Q360.3906,22.1563 360.0156,22.1563 Q359.6719,22.1563 359.4688,21.9531 Q359.2656,21.7656 359.1563,21.25 Q359.1094,20.8906 358.9219,20.7031 Q358.5938,20.3281 357.9844,20.1094 Q357.375,19.8906 356.75,19.8906 Q355.9844,19.8906 355.3438,20.2188 Q354.7188,20.5469 354.2188,21.2969 Q353.7344,22.0469 353.7344,23.0781 L353.7344,24.1719 Q353.7344,25.4063 354.625,26.2344 Q355.5156,27.0469 357.1094,27.0469 Q358.0469,27.0469 358.7031,26.7969 Q359.0938,26.6406 359.5156,26.2031 Q359.7813,25.9375 359.9219,25.8594 Q360.0781,25.7813 360.2813,25.7813 Q360.6094,25.7813 360.8594,26.0469 Q361.125,26.2969 361.125,26.6406 Q361.125,26.9844 360.7813,27.3906 Q360.2813,27.9688 359.4844,28.2969 Q358.4063,28.75 357.1094,28.75 Q355.5938,28.75 354.3906,28.125 Q353.4063,27.625 352.7188,26.5625 Q352.0313,25.4844 352.0313,24.2031 L352.0313,23.0469 Q352.0313,21.7188 352.6406,20.5781 Q353.2656,19.4219 354.3594,18.8125 Q355.4531,18.1875 356.6875,18.1875 Q357.4219,18.1875 358.0625,18.3594 Q358.7188,18.5156 359.2656,18.875 Z " fill="#000000"/><text fill="#000000" font-family="sans-serif" font-size="14" lengthAdjust="spacing" textLength="67" x="370.5" y="28.7285">StaticError</text><line style="stroke:#181818;stroke-width:0.5;" x1="342.5" x2="439.5" y1="39" y2="39"/><line style="stroke:#181818;stroke-width:0.5;" x1="342.5" x2="439.5" y1="47" y2="47"/></g><!--class Undeclared--><g id="elem_Undeclared"><rect codeLine="61" fill="#F1F1F1" height="100.8281" id="Undeclared" rx="2.5" ry="2.5" style="stroke:#181818;stroke-width:0.5;" width="108" x="7" y="115"/><ellipse cx="23.8" cy="131" fill="#ADD1B2" rx="11" ry="11" style="stroke:#181818;stroke-width:1.0;"/><path d="M26.5656,126.875 Q26.7219,126.6563 26.9094,126.5469 Q27.0969,126.4375 27.3156,126.4375 Q27.6906,126.4375 27.925,126.7031 Q28.1594,126.9531 28.1594,127.5625 L28.1594,129.0156 Q28.1594,129.625 27.925,129.8906 Q27.6906,130.1563 27.3156,130.1563 Q26.9719,130.1563 26.7688,129.9531 Q26.5656,129.7656 26.4563,129.25 Q26.4094,128.8906 26.2219,128.7031 Q25.8938,128.3281 25.2844,128.1094 Q24.675,127.8906 24.05,127.8906 Q23.2844,127.8906 22.6438,128.2188 Q22.0188,128.5469 21.5188,129.2969 Q21.0344,130.0469 21.0344,131.0781 L21.0344,132.1719 Q21.0344,133.4063 21.925,134.2344 Q22.8156,135.0469 24.4094,135.0469 Q25.3469,135.0469 26.0031,134.7969 Q26.3938,134.6406 26.8156,134.2031 Q27.0813,133.9375 27.2219,133.8594 Q27.3781,133.7813 27.5813,133.7813 Q27.9094,133.7813 28.1594,134.0469 Q28.425,134.2969 28.425,134.6406 Q28.425,134.9844 28.0813,135.3906 Q27.5813,135.9688 26.7844,136.2969 Q25.7063,136.75 24.4094,136.75 Q22.8938,136.75 21.6906,136.125 Q20.7063,135.625 20.0188,134.5625 Q19.3313,133.4844 19.3313,132.2031 L19.3313,131.0469 Q19.3313,129.7188 19.9406,128.5781 Q20.5656,127.4219 21.6594,126.8125 Q22.7531,126.1875 23.9875,126.1875 Q24.7219,126.1875 25.3625,126.3594 Q26.0188,126.5156 26.5656,126.875 Z " fill="#000000"/><text fill="#000000" font-family="sans-serif" font-size="14" lengthAdjust="spacing" textLength="72" x="38.2" y="136.7285">Undeclared</text><line style="stroke:#181818;stroke-width:0.5;" x1="8" x2="114" y1="147" y2="147"/><ellipse cx="18" cy="161.3047" fill="none" rx="3" ry="3" style="stroke:#038048;stroke-width:1.0;"/><text fill="#000000" font-family="sans-serif" font-size="14" lengthAdjust="spacing" textLength="43" x="27" y="165.5332">k: Kind</text><ellipse cx="18" cy="178.9141" fill="none" rx="3" ry="3" style="stroke:#038048;stroke-width:1.0;"/><text fill="#000000" font-family="sans-serif" font-size="14" lengthAdjust="spacing" textLength="32" x="27" y="183.1426">n: str</text><line style="stroke:#181818;stroke-width:0.5;" x1="8" x2="114" y1="190.2188" y2="190.2188"/><ellipse cx="18" cy="204.5234" fill="#84BE84" rx="3" ry="3" style="stroke:#038048;stroke-width:1.0;"/><text fill="#000000" font-family="sans-serif" font-size="14" lengthAdjust="spacing" textLength="82" x="27" y="208.752">__str__(): str</text></g><!--class Redeclared--><g id="elem_Redeclared"><rect codeLine="72" fill="#F1F1F1" height="100.8281" id="Redeclared" rx="2.5" ry="2.5" style="stroke:#181818;stroke-width:0.5;" width="108" x="337" y="115"/><ellipse cx="353.35" cy="131" fill="#ADD1B2" rx="11" ry="11" style="stroke:#181818;stroke-width:1.0;"/><path d="M356.1156,126.875 Q356.2719,126.6563 356.4594,126.5469 Q356.6469,126.4375 356.8656,126.4375 Q357.2406,126.4375 357.475,126.7031 Q357.7094,126.9531 357.7094,127.5625 L357.7094,129.0156 Q357.7094,129.625 357.475,129.8906 Q357.2406,130.1563 356.8656,130.1563 Q356.5219,130.1563 356.3188,129.9531 Q356.1156,129.7656 356.0063,129.25 Q355.9594,128.8906 355.7719,128.7031 Q355.4438,128.3281 354.8344,128.1094 Q354.225,127.8906 353.6,127.8906 Q352.8344,127.8906 352.1938,128.2188 Q351.5688,128.5469 351.0688,129.2969 Q350.5844,130.0469 350.5844,131.0781 L350.5844,132.1719 Q350.5844,133.4063 351.475,134.2344 Q352.3656,135.0469 353.9594,135.0469 Q354.8969,135.0469 355.5531,134.7969 Q355.9438,134.6406 356.3656,134.2031 Q356.6313,133.9375 356.7719,133.8594 Q356.9281,133.7813 357.1313,133.7813 Q357.4594,133.7813 357.7094,134.0469 Q357.975,134.2969 357.975,134.6406 Q357.975,134.9844 357.6313,135.3906 Q357.1313,135.9688 356.3344,136.2969 Q355.2563,136.75 353.9594,136.75 Q352.4438,136.75 351.2406,136.125 Q350.2563,135.625 349.5688,134.5625 Q348.8813,133.4844 348.8813,132.2031 L348.8813,131.0469 Q348.8813,129.7188 349.4906,128.5781 Q350.1156,127.4219 351.2094,126.8125 Q352.3031,126.1875 353.5375,126.1875 Q354.2719,126.1875 354.9125,126.3594 Q355.5688,126.5156 356.1156,126.875 Z " fill="#000000"/><text fill="#000000" font-family="sans-serif" font-size="14" lengthAdjust="spacing" textLength="73" x="367.65" y="136.7285">Redeclared</text><line style="stroke:#181818;stroke-width:0.5;" x1="338" x2="444" y1="147" y2="147"/><ellipse cx="348" cy="161.3047" fill="none" rx="3" ry="3" style="stroke:#038048;stroke-width:1.0;"/><text fill="#000000" font-family="sans-serif" font-size="14" lengthAdjust="spacing" textLength="43" x="357" y="165.5332">k: Kind</text><ellipse cx="348" cy="178.9141" fill="none" rx="3" ry="3" style="stroke:#038048;stroke-width:1.0;"/><text fill="#000000" font-family="sans-serif" font-size="14" lengthAdjust="spacing" textLength="32" x="357" y="183.1426">n: str</text><line style="stroke:#181818;stroke-width:0.5;" x1="338" x2="444" y1="190.2188" y2="190.2188"/><ellipse cx="348" cy="204.5234" fill="#84BE84" rx="3" ry="3" style="stroke:#038048;stroke-width:1.0;"/><text fill="#000000" font-family="sans-serif" font-size="14" lengthAdjust="spacing" textLength="82" x="357" y="208.752">__str__(): str</text></g><!--class TypeMismatch--><g id="elem_TypeMismatch"><rect codeLine="83" fill="#F1F1F1" height="83.2188" id="TypeMismatch" rx="2.5" ry="2.5" style="stroke:#181818;stroke-width:0.5;" width="222" x="665" y="124"/><ellipse cx="726.25" cy="140" fill="#ADD1B2" rx="11" ry="11" style="stroke:#181818;stroke-width:1.0;"/><path d="M729.0156,135.875 Q729.1719,135.6563 729.3594,135.5469 Q729.5469,135.4375 729.7656,135.4375 Q730.1406,135.4375 730.375,135.7031 Q730.6094,135.9531 730.6094,136.5625 L730.6094,138.0156 Q730.6094,138.625 730.375,138.8906 Q730.1406,139.1563 729.7656,139.1563 Q729.4219,139.1563 729.2188,138.9531 Q729.0156,138.7656 728.9063,138.25 Q728.8594,137.8906 728.6719,137.7031 Q728.3438,137.3281 727.7344,137.1094 Q727.125,136.8906 726.5,136.8906 Q725.7344,136.8906 725.0938,137.2188 Q724.4688,137.5469 723.9688,138.2969 Q723.4844,139.0469 723.4844,140.0781 L723.4844,141.1719 Q723.4844,142.4063 724.375,143.2344 Q725.2656,144.0469 726.8594,144.0469 Q727.7969,144.0469 728.4531,143.7969 Q728.8438,143.6406 729.2656,143.2031 Q729.5313,142.9375 729.6719,142.8594 Q729.8281,142.7813 730.0313,142.7813 Q730.3594,142.7813 730.6094,143.0469 Q730.875,143.2969 730.875,143.6406 Q730.875,143.9844 730.5313,144.3906 Q730.0313,144.9688 729.2344,145.2969 Q728.1563,145.75 726.8594,145.75 Q725.3438,145.75 724.1406,145.125 Q723.1563,144.625 722.4688,143.5625 Q721.7813,142.4844 721.7813,141.2031 L721.7813,140.0469 Q721.7813,138.7188 722.3906,137.5781 Q723.0156,136.4219 724.1094,135.8125 Q725.2031,135.1875 726.4375,135.1875 Q727.1719,135.1875 727.8125,135.3594 Q728.4688,135.5156 729.0156,135.875 Z " fill="#000000"/><text fill="#000000" font-family="sans-serif" font-size="14" lengthAdjust="spacing" textLength="91" x="746.75" y="145.7285">TypeMismatch</text><line style="stroke:#181818;stroke-width:0.5;" x1="666" x2="886" y1="156" y2="156"/><ellipse cx="676" cy="170.3047" fill="none" rx="3" ry="3" style="stroke:#038048;stroke-width:1.0;"/><text fill="#000000" font-family="sans-serif" font-size="14" lengthAdjust="spacing" textLength="196" x="685" y="174.5332">err: Union[AST.Expr, AST.Stmt]</text><line style="stroke:#181818;stroke-width:0.5;" x1="666" x2="886" y1="181.6094" y2="181.6094"/><ellipse cx="676" cy="195.9141" fill="#84BE84" rx="3" ry="3" style="stroke:#038048;stroke-width:1.0;"/><text fill="#000000" font-family="sans-serif" font-size="14" lengthAdjust="spacing" textLength="82" x="685" y="200.1426">__str__(): str</text></g><g id="elem_GMN28"><path d="M150,136 L150,161.5 L115.14,165.5 L150,169.5 L150,195.0547 A0,0 0 0 0 150,195.0547 L302,195.0547 A0,0 0 0 0 302,195.0547 L302,146 L292,136 L150,136 A0,0 0 0 0 150,136 " fill="#FEFFDD" style="stroke:#181818;stroke-width:0.5;"/><path d="M292,136 L292,146 L302,146 L292,136 " fill="#FEFFDD" style="stroke:#181818;stroke-width:0.5;"/><text fill="#000000" font-family="sans-serif" font-size="13" font-style="italic" lengthAdjust="spacing" textLength="8" x="156" y="154.4951">k</text><text fill="#000000" font-family="sans-serif" font-size="13" lengthAdjust="spacing" textLength="70" x="164" y="154.4951">: Kind of the</text><text fill="#000000" font-family="sans-serif" font-size="13" lengthAdjust="spacing" textLength="115" x="172" y="170.8467">undeclared identifier</text><text fill="#000000" font-family="sans-serif" font-size="13" font-style="italic" lengthAdjust="spacing" textLength="7" x="156" y="187.1982">n</text><text fill="#000000" font-family="sans-serif" font-size="13" lengthAdjust="spacing" textLength="108" x="163" y="187.1982">: Name of identifier</text></g><g id="elem_GMN31"><path d="M480.5,136 L480.5,161.5 L445.13,165.5 L480.5,169.5 L480.5,195.0547 A0,0 0 0 0 480.5,195.0547 L629.5,195.0547 A0,0 0 0 0 629.5,195.0547 L629.5,146 L619.5,136 L480.5,136 A0,0 0 0 0 480.5,136 " fill="#FEFFDD" style="stroke:#181818;stroke-width:0.5;"/><path d="M619.5,136 L619.5,146 L629.5,146 L619.5,136 " fill="#FEFFDD" style="stroke:#181818;stroke-width:0.5;"/><text fill="#000000" font-family="sans-serif" font-size="13" font-style="italic" lengthAdjust="spacing" textLength="8" x="486.5" y="154.4951">k</text><text fill="#000000" font-family="sans-serif" font-size="13" lengthAdjust="spacing" textLength="70" x="494.5" y="154.4951">: Kind of the</text><text fill="#000000" font-family="sans-serif" font-size="13" lengthAdjust="spacing" textLength="112" x="502.5" y="170.8467">redeclared identifier</text><text fill="#000000" font-family="sans-serif" font-size="13" font-style="italic" lengthAdjust="spacing" textLength="7" x="486.5" y="187.1982">n</text><text fill="#000000" font-family="sans-serif" font-size="13" lengthAdjust="spacing" textLength="108" x="493.5" y="187.1982">: Name of identifier</text></g><!--reverse link Kind to Function--><g id="link_Kind_Function"><path codeLine="8" d="M1499.9659,32.8702 C1420.2059,34.9102 1215.63,46.37 1047,115 C1036.14,119.42 1025.31,125.74 1015.5,132.39 " fill="none" id="Kind-backto-Function" style="stroke:#181818;stroke-width:1.0;"/><polygon fill="none" points="1517.96,32.41,1499.8125,26.8722,1500.1193,38.8683,1517.96,32.41" style="stroke:#181818;stroke-width:1.0;"/></g><!--reverse link Kind to Method--><g id="link_Kind_Method"><path codeLine="9" d="M1499.6586,37.173 C1436.2986,44.483 1304.56,64.07 1190,115 C1179.56,119.64 1169.07,125.89 1159.47,132.38 " fill="none" id="Kind-backto-Method" style="stroke:#181818;stroke-width:1.0;"/><polygon fill="none" points="1517.54,35.11,1498.9709,31.2126,1500.3463,43.1335,1517.54,35.11" style="stroke:#181818;stroke-width:1.0;"/></g><!--reverse link Kind to Parameter--><g id="link_Kind_Parameter"><path codeLine="10" d="M1500.6305,46.5143 C1458.0905,59.9043 1395.89,81.57 1333,115 C1323.45,120.08 1313.65,126.22 1304.51,132.41 " fill="none" id="Kind-backto-Parameter" style="stroke:#181818;stroke-width:1.0;"/><polygon fill="none" points="1517.8,41.11,1498.829,40.7911,1502.4319,52.2375,1517.8,41.11" style="stroke:#181818;stroke-width:1.0;"/></g><!--reverse link Kind to Variable--><g id="link_Kind_Variable"><path codeLine="11" d="M1509.8871,67.3145 C1486.8471,88.6645 1465.56,108.39 1439.8,132.26 " fill="none" id="Kind-backto-Variable" style="stroke:#181818;stroke-width:1.0;"/><polygon fill="none" points="1523.09,55.08,1505.8089,62.9135,1513.9652,71.7155,1523.09,55.08" style="stroke:#181818;stroke-width:1.0;"/></g><!--reverse link Kind to Constant--><g id="link_Kind_Constant"><path codeLine="12" d="M1548,73.08 C1548,94.43 1548,108.39 1548,132.26 " fill="none" id="Kind-backto-Constant" style="stroke:#181818;stroke-width:1.0;"/><polygon fill="none" points="1548,55.08,1542,73.08,1554,73.08,1548,55.08" style="stroke:#181818;stroke-width:1.0;"/></g><!--reverse link Kind to Field--><g id="link_Kind_Field"><path codeLine="13" d="M1586.1129,67.3145 C1609.1529,88.6645 1630.44,108.39 1656.2,132.26 " fill="none" id="Kind-backto-Field" style="stroke:#181818;stroke-width:1.0;"/><polygon fill="none" points="1572.91,55.08,1582.0348,71.7155,1590.1911,62.9135,1572.91,55.08" style="stroke:#181818;stroke-width:1.0;"/></g><!--reverse link Kind to Identifier--><g id="link_Kind_Identifier"><path codeLine="14" d="M1595.3695,46.5143 C1637.9095,59.9043 1700.11,81.57 1763,115 C1772.55,120.08 1782.35,126.22 1791.49,132.41 " fill="none" id="Kind-backto-Identifier" style="stroke:#181818;stroke-width:1.0;"/><polygon fill="none" points="1578.2,41.11,1593.5681,52.2375,1597.171,40.7911,1578.2,41.11" style="stroke:#181818;stroke-width:1.0;"/></g><!--reverse link Kind to Type--><g id="link_Kind_Type"><path codeLine="15" d="M1596.3414,37.173 C1659.7014,44.483 1791.44,64.07 1906,115 C1916.44,119.64 1926.93,125.89 1936.53,132.38 " fill="none" id="Kind-backto-Type" style="stroke:#181818;stroke-width:1.0;"/><polygon fill="none" points="1578.46,35.11,1595.6537,43.1335,1597.0291,31.2126,1578.46,35.11" style="stroke:#181818;stroke-width:1.0;"/></g><!--reverse link Kind to Prototype--><g id="link_Kind_Prototype"><path codeLine="16" d="M1596.0341,32.8702 C1675.7941,34.9102 1880.37,46.37 2049,115 C2059.86,119.42 2070.69,125.74 2080.5,132.39 " fill="none" id="Kind-backto-Prototype" style="stroke:#181818;stroke-width:1.0;"/><polygon fill="none" points="1578.04,32.41,1595.8807,38.8683,1596.1875,26.8722,1578.04,32.41" style="stroke:#181818;stroke-width:1.0;"/></g><!--reverse link StaticError to Undeclared--><g id="link_StaticError_Undeclared"><path codeLine="57" d="M323.6099,47.5648 C270.1699,60.6948 201.19,80.76 132,115 C126.34,117.8 120.63,121.01 115.04,124.43 " fill="none" id="StaticError-backto-Undeclared" style="stroke:#181818;stroke-width:1.0;"/><polygon fill="none" points="341.09,43.27,322.1783,41.7381,325.0415,53.3915,341.09,43.27" style="stroke:#181818;stroke-width:1.0;"/></g><!--reverse link StaticError to Redeclared--><g id="link_StaticError_Redeclared"><path codeLine="58" d="M391,73.08 C391,89.54 391,94.3 391,114.8 " fill="none" id="StaticError-backto-Redeclared" style="stroke:#181818;stroke-width:1.0;"/><polygon fill="none" points="391,55.08,385,73.08,397,73.08,391,55.08" style="stroke:#181818;stroke-width:1.0;"/></g><!--reverse link StaticError to TypeMismatch--><g id="link_StaticError_TypeMismatch"><path codeLine="59" d="M458.0083,52.6344 C509.7883,68.7344 575.86,89.84 647,115 C655.03,117.84 663.31,120.84 671.62,123.91 " fill="none" id="StaticError-backto-TypeMismatch" style="stroke:#181818;stroke-width:1.0;"/><polygon fill="none" points="440.82,47.29,456.2268,58.3638,459.7898,46.9049,440.82,47.29" style="stroke:#181818;stroke-width:1.0;"/></g><!--SRC=[jPDDImCn48Rl-HNZJT6wz-95f898fTZgHMH9DrCtj9kKsIaewdyt7wo9s9ABvh1atxmpUMPszaZXIXi49Las6zdt49v2iDq2MrXQPjk1qeGDQsk4ICvRRHIyYqyXmkxYOpI2wvs9lYHDaLkhCc4cINR8I9dsA4dBvGOpwSgQdgNXFBl6JPxfHg5XlT8_KYtUjdcQ6Lcsx3KHiGT4XmvkdTPrprJNnoTZS1jVJlH5xfBhkvYISQYmv1lABlb2BqgcrA2IqtUjMElGof9npf9rCo6o50Sa5y9NUJ0AdPTG_JwxnyDd7dEg-qvoq-QpcF8DREjn6D3uOYBWVcXZ6O7qIyl1K5Nhgeh1O5V0BKBG_TgbQtIQlHXbVDIT6mOVbPsYo-Elo75JYV-AI_Wtk7dN1s0a6hkskn_fwNA-E9-yRkaC_6xE7JyVOFy2]--></g></svg>