<?xml version="1.0" encoding="us-ascii" standalone="no"?><svg xmlns="http://www.w3.org/2000/svg" xmlns:xlink="http://www.w3.org/1999/xlink" contentStyleType="text/css" height="786px" preserveAspectRatio="none" style="width:1043px;height:786px;background:#FFFFFF;" version="1.1" viewBox="0 0 1043 786" width="1043px" zoomAndPan="magnify"><defs/><g><!--class MachineCode--><g id="elem_MachineCode"><rect codeLine="1" fill="#F1F1F1" height="347.3594" id="MachineCode" rx="2.5" ry="2.5" style="stroke:#181818;stroke-width:0.5;" width="397" x="7" y="7"/><ellipse cx="157.75" cy="23" fill="#ADD1B2" rx="11" ry="11" style="stroke:#181818;stroke-width:1.0;"/><path d="M160.5156,18.875 Q160.6719,18.6563 160.8594,18.5469 Q161.0469,18.4375 161.2656,18.4375 Q161.6406,18.4375 161.875,18.7031 Q162.1094,18.9531 162.1094,19.5625 L162.1094,21.0156 Q162.1094,21.625 161.875,21.8906 Q161.6406,22.1563 161.2656,22.1563 Q160.9219,22.1563 160.7188,21.9531 Q160.5156,21.7656 160.4063,21.25 Q160.3594,20.8906 160.1719,20.7031 Q159.8438,20.3281 159.2344,20.1094 Q158.625,19.8906 158,19.8906 Q157.2344,19.8906 156.5938,20.2188 Q155.9688,20.5469 155.4688,21.2969 Q154.9844,22.0469 154.9844,23.0781 L154.9844,24.1719 Q154.9844,25.4063 155.875,26.2344 Q156.7656,27.0469 158.3594,27.0469 Q159.2969,27.0469 159.9531,26.7969 Q160.3438,26.6406 160.7656,26.2031 Q161.0313,25.9375 161.1719,25.8594 Q161.3281,25.7813 161.5313,25.7813 Q161.8594,25.7813 162.1094,26.0469 Q162.375,26.2969 162.375,26.6406 Q162.375,26.9844 162.0313,27.3906 Q161.5313,27.9688 160.7344,28.2969 Q159.6563,28.75 158.3594,28.75 Q156.8438,28.75 155.6406,28.125 Q154.6563,27.625 153.9688,26.5625 Q153.2813,25.4844 153.2813,24.2031 L153.2813,23.0469 Q153.2813,21.7188 153.8906,20.5781 Q154.5156,19.4219 155.6094,18.8125 Q156.7031,18.1875 157.9375,18.1875 Q158.6719,18.1875 159.3125,18.3594 Q159.9688,18.5156 160.5156,18.875 Z " fill="#000000"/><text fill="#000000" font-family="sans-serif" font-size="14" lengthAdjust="spacing" textLength="87" x="178.25" y="28.7285">MachineCode</text><line style="stroke:#181818;stroke-width:0.5;" x1="8" x2="403" y1="39" y2="39"/><line style="stroke:#181818;stroke-width:0.5;" x1="8" x2="403" y1="47" y2="47"/><ellipse cx="18" cy="61.3047" fill="#84BE84" rx="3" ry="3" style="stroke:#038048;stroke-width:1.0;"/><text fill="#000000" font-family="sans-serif" font-size="14" font-style="italic" lengthAdjust="spacing" textLength="110" x="27" y="65.5332">emitPUSHNULL()</text><ellipse cx="18" cy="78.9141" fill="#84BE84" rx="3" ry="3" style="stroke:#038048;stroke-width:1.0;"/><text fill="#000000" font-family="sans-serif" font-size="14" font-style="italic" lengthAdjust="spacing" textLength="116" x="27" y="83.1426">emitICONST(i: Int)</text><ellipse cx="18" cy="96.5234" fill="#84BE84" rx="3" ry="3" style="stroke:#038048;stroke-width:1.0;"/><text fill="#000000" font-family="sans-serif" font-size="14" font-style="italic" lengthAdjust="spacing" textLength="114" x="27" y="100.752">emitBIPUSH(i: Int)</text><ellipse cx="18" cy="114.1328" fill="#84BE84" rx="3" ry="3" style="stroke:#038048;stroke-width:1.0;"/><text fill="#000000" font-family="sans-serif" font-size="14" font-style="italic" lengthAdjust="spacing" textLength="114" x="27" y="118.3613">emitSIPUSH(i: Int)</text><ellipse cx="18" cy="131.7422" fill="#84BE84" rx="3" ry="3" style="stroke:#038048;stroke-width:1.0;"/><text fill="#000000" font-family="sans-serif" font-size="14" font-style="italic" lengthAdjust="spacing" textLength="128" x="27" y="135.9707">emitLDC(in_: String)</text><ellipse cx="18" cy="149.3516" fill="#84BE84" rx="3" ry="3" style="stroke:#038048;stroke-width:1.0;"/><text fill="#000000" font-family="sans-serif" font-size="14" font-style="italic" lengthAdjust="spacing" textLength="142" x="27" y="153.5801">emitFCONST(i: String)</text><ellipse cx="18" cy="166.9609" fill="#84BE84" rx="3" ry="3" style="stroke:#038048;stroke-width:1.0;"/><text fill="#000000" font-family="sans-serif" font-size="14" font-style="italic" lengthAdjust="spacing" textLength="121" x="27" y="171.1895">emitILOAD(in_: Int)</text><ellipse cx="18" cy="184.5703" fill="#84BE84" rx="3" ry="3" style="stroke:#038048;stroke-width:1.0;"/><text fill="#000000" font-family="sans-serif" font-size="14" font-style="italic" lengthAdjust="spacing" textLength="131" x="27" y="188.7988">emitISTORE(in_: Int)</text><ellipse cx="18" cy="202.1797" fill="#84BE84" rx="3" ry="3" style="stroke:#038048;stroke-width:1.0;"/><text fill="#000000" font-family="sans-serif" font-size="14" font-style="italic" lengthAdjust="spacing" textLength="126" x="27" y="206.4082">emitALOAD(in_: Int)</text><ellipse cx="18" cy="219.7891" fill="#84BE84" rx="3" ry="3" style="stroke:#038048;stroke-width:1.0;"/><text fill="#000000" font-family="sans-serif" font-size="14" font-style="italic" lengthAdjust="spacing" textLength="136" x="27" y="224.0176">emitASTORE(in_: Int)</text><ellipse cx="18" cy="237.3984" fill="#84BE84" rx="3" ry="3" style="stroke:#038048;stroke-width:1.0;"/><text fill="#000000" font-family="sans-serif" font-size="14" font-style="italic" lengthAdjust="spacing" textLength="276" x="27" y="241.627">emitGETSTATIC(lexeme: String, typ: String)</text><ellipse cx="18" cy="255.0078" fill="#84BE84" rx="3" ry="3" style="stroke:#038048;stroke-width:1.0;"/><text fill="#000000" font-family="sans-serif" font-size="14" font-style="italic" lengthAdjust="spacing" textLength="275" x="27" y="259.2363">emitPUTSTATIC(lexeme: String, typ: String)</text><ellipse cx="18" cy="272.6172" fill="#84BE84" rx="3" ry="3" style="stroke:#038048;stroke-width:1.0;"/><text fill="#000000" font-family="sans-serif" font-size="14" font-style="italic" lengthAdjust="spacing" textLength="371" x="27" y="276.8457">emitMETHOD(lexeme: String, typ: String, isStatic: Boolean)</text><ellipse cx="18" cy="290.2266" fill="#84BE84" rx="3" ry="3" style="stroke:#038048;stroke-width:1.0;"/><text fill="#000000" font-family="sans-serif" font-size="14" font-style="italic" lengthAdjust="spacing" textLength="126" x="27" y="294.4551">emitENDMETHOD()</text><ellipse cx="18" cy="307.8359" fill="#84BE84" rx="3" ry="3" style="stroke:#038048;stroke-width:1.0;"/><text fill="#000000" font-family="sans-serif" font-size="14" font-style="italic" lengthAdjust="spacing" textLength="133" x="27" y="312.0645">emitLABEL(label: Int)</text><ellipse cx="18" cy="325.4453" fill="#84BE84" rx="3" ry="3" style="stroke:#038048;stroke-width:1.0;"/><text fill="#000000" font-family="sans-serif" font-size="14" font-style="italic" lengthAdjust="spacing" textLength="132" x="27" y="329.6738">emitGOTO(label: Int)</text><ellipse cx="18" cy="343.0547" fill="#84BE84" rx="3" ry="3" style="stroke:#038048;stroke-width:1.0;"/><text fill="#000000" font-family="sans-serif" font-size="14" font-style="italic" lengthAdjust="spacing" textLength="94" x="27" y="347.2832">emitRETURN()</text></g><!--class JasminCode--><g id="elem_JasminCode"><rect codeLine="21" fill="#F1F1F1" height="347.3594" id="JasminCode" rx="2.5" ry="2.5" style="stroke:#181818;stroke-width:0.5;" width="395" x="106" y="432"/><ellipse cx="260.75" cy="448" fill="#ADD1B2" rx="11" ry="11" style="stroke:#181818;stroke-width:1.0;"/><path d="M263.5156,443.875 Q263.6719,443.6563 263.8594,443.5469 Q264.0469,443.4375 264.2656,443.4375 Q264.6406,443.4375 264.875,443.7031 Q265.1094,443.9531 265.1094,444.5625 L265.1094,446.0156 Q265.1094,446.625 264.875,446.8906 Q264.6406,447.1563 264.2656,447.1563 Q263.9219,447.1563 263.7188,446.9531 Q263.5156,446.7656 263.4063,446.25 Q263.3594,445.8906 263.1719,445.7031 Q262.8438,445.3281 262.2344,445.1094 Q261.625,444.8906 261,444.8906 Q260.2344,444.8906 259.5938,445.2188 Q258.9688,445.5469 258.4688,446.2969 Q257.9844,447.0469 257.9844,448.0781 L257.9844,449.1719 Q257.9844,450.4063 258.875,451.2344 Q259.7656,452.0469 261.3594,452.0469 Q262.2969,452.0469 262.9531,451.7969 Q263.3438,451.6406 263.7656,451.2031 Q264.0313,450.9375 264.1719,450.8594 Q264.3281,450.7813 264.5313,450.7813 Q264.8594,450.7813 265.1094,451.0469 Q265.375,451.2969 265.375,451.6406 Q265.375,451.9844 265.0313,452.3906 Q264.5313,452.9688 263.7344,453.2969 Q262.6563,453.75 261.3594,453.75 Q259.8438,453.75 258.6406,453.125 Q257.6563,452.625 256.9688,451.5625 Q256.2813,450.4844 256.2813,449.2031 L256.2813,448.0469 Q256.2813,446.7188 256.8906,445.5781 Q257.5156,444.4219 258.6094,443.8125 Q259.7031,443.1875 260.9375,443.1875 Q261.6719,443.1875 262.3125,443.3594 Q262.9688,443.5156 263.5156,443.875 Z " fill="#000000"/><text fill="#000000" font-family="sans-serif" font-size="14" lengthAdjust="spacing" textLength="77" x="281.25" y="453.7285">JasminCode</text><line style="stroke:#181818;stroke-width:0.5;" x1="107" x2="500" y1="464" y2="464"/><line style="stroke:#181818;stroke-width:0.5;" x1="107" x2="500" y1="472" y2="472"/><ellipse cx="117" cy="486.3047" fill="#84BE84" rx="3" ry="3" style="stroke:#038048;stroke-width:1.0;"/><text fill="#000000" font-family="sans-serif" font-size="14" lengthAdjust="spacing" textLength="106" x="126" y="490.5332">emitPUSHNULL()</text><ellipse cx="117" cy="503.9141" fill="#84BE84" rx="3" ry="3" style="stroke:#038048;stroke-width:1.0;"/><text fill="#000000" font-family="sans-serif" font-size="14" lengthAdjust="spacing" textLength="113" x="126" y="508.1426">emitICONST(i: Int)</text><ellipse cx="117" cy="521.5234" fill="#84BE84" rx="3" ry="3" style="stroke:#038048;stroke-width:1.0;"/><text fill="#000000" font-family="sans-serif" font-size="14" lengthAdjust="spacing" textLength="110" x="126" y="525.752">emitBIPUSH(i: Int)</text><ellipse cx="117" cy="539.1328" fill="#84BE84" rx="3" ry="3" style="stroke:#038048;stroke-width:1.0;"/><text fill="#000000" font-family="sans-serif" font-size="14" lengthAdjust="spacing" textLength="110" x="126" y="543.3613">emitSIPUSH(i: Int)</text><ellipse cx="117" cy="556.7422" fill="#84BE84" rx="3" ry="3" style="stroke:#038048;stroke-width:1.0;"/><text fill="#000000" font-family="sans-serif" font-size="14" lengthAdjust="spacing" textLength="128" x="126" y="560.9707">emitLDC(in_: String)</text><ellipse cx="117" cy="574.3516" fill="#84BE84" rx="3" ry="3" style="stroke:#038048;stroke-width:1.0;"/><text fill="#000000" font-family="sans-serif" font-size="14" lengthAdjust="spacing" textLength="141" x="126" y="578.5801">emitFCONST(i: String)</text><ellipse cx="117" cy="591.9609" fill="#84BE84" rx="3" ry="3" style="stroke:#038048;stroke-width:1.0;"/><text fill="#000000" font-family="sans-serif" font-size="14" lengthAdjust="spacing" textLength="119" x="126" y="596.1895">emitILOAD(in_: Int)</text><ellipse cx="117" cy="609.5703" fill="#84BE84" rx="3" ry="3" style="stroke:#038048;stroke-width:1.0;"/><text fill="#000000" font-family="sans-serif" font-size="14" lengthAdjust="spacing" textLength="129" x="126" y="613.7988">emitISTORE(in_: Int)</text><ellipse cx="117" cy="627.1797" fill="#84BE84" rx="3" ry="3" style="stroke:#038048;stroke-width:1.0;"/><text fill="#000000" font-family="sans-serif" font-size="14" lengthAdjust="spacing" textLength="125" x="126" y="631.4082">emitALOAD(in_: Int)</text><ellipse cx="117" cy="644.7891" fill="#84BE84" rx="3" ry="3" style="stroke:#038048;stroke-width:1.0;"/><text fill="#000000" font-family="sans-serif" font-size="14" lengthAdjust="spacing" textLength="135" x="126" y="649.0176">emitASTORE(in_: Int)</text><ellipse cx="117" cy="662.3984" fill="#84BE84" rx="3" ry="3" style="stroke:#038048;stroke-width:1.0;"/><text fill="#000000" font-family="sans-serif" font-size="14" lengthAdjust="spacing" textLength="275" x="126" y="666.627">emitGETSTATIC(lexeme: String, typ: String)</text><ellipse cx="117" cy="680.0078" fill="#84BE84" rx="3" ry="3" style="stroke:#038048;stroke-width:1.0;"/><text fill="#000000" font-family="sans-serif" font-size="14" lengthAdjust="spacing" textLength="273" x="126" y="684.2363">emitPUTSTATIC(lexeme: String, typ: String)</text><ellipse cx="117" cy="697.6172" fill="#84BE84" rx="3" ry="3" style="stroke:#038048;stroke-width:1.0;"/><text fill="#000000" font-family="sans-serif" font-size="14" lengthAdjust="spacing" textLength="369" x="126" y="701.8457">emitMETHOD(lexeme: String, typ: String, isStatic: Boolean)</text><ellipse cx="117" cy="715.2266" fill="#84BE84" rx="3" ry="3" style="stroke:#038048;stroke-width:1.0;"/><text fill="#000000" font-family="sans-serif" font-size="14" lengthAdjust="spacing" textLength="123" x="126" y="719.4551">emitENDMETHOD()</text><ellipse cx="117" cy="732.8359" fill="#84BE84" rx="3" ry="3" style="stroke:#038048;stroke-width:1.0;"/><text fill="#000000" font-family="sans-serif" font-size="14" lengthAdjust="spacing" textLength="132" x="126" y="737.0645">emitLABEL(label: Int)</text><ellipse cx="117" cy="750.4453" fill="#84BE84" rx="3" ry="3" style="stroke:#038048;stroke-width:1.0;"/><text fill="#000000" font-family="sans-serif" font-size="14" lengthAdjust="spacing" textLength="131" x="126" y="754.6738">emitGOTO(label: Int)</text><ellipse cx="117" cy="768.0547" fill="#84BE84" rx="3" ry="3" style="stroke:#038048;stroke-width:1.0;"/><text fill="#000000" font-family="sans-serif" font-size="14" lengthAdjust="spacing" textLength="92" x="126" y="772.2832">emitRETURN()</text></g><!--class Frame--><g id="elem_Frame"><rect codeLine="41" fill="#F1F1F1" height="206.4844" id="Frame" rx="2.5" ry="2.5" style="stroke:#181818;stroke-width:0.5;" width="208" x="633.5" y="502.5"/><ellipse cx="712.75" cy="518.5" fill="#ADD1B2" rx="11" ry="11" style="stroke:#181818;stroke-width:1.0;"/><path d="M715.5156,514.375 Q715.6719,514.1563 715.8594,514.0469 Q716.0469,513.9375 716.2656,513.9375 Q716.6406,513.9375 716.875,514.2031 Q717.1094,514.4531 717.1094,515.0625 L717.1094,516.5156 Q717.1094,517.125 716.875,517.3906 Q716.6406,517.6563 716.2656,517.6563 Q715.9219,517.6563 715.7188,517.4531 Q715.5156,517.2656 715.4063,516.75 Q715.3594,516.3906 715.1719,516.2031 Q714.8438,515.8281 714.2344,515.6094 Q713.625,515.3906 713,515.3906 Q712.2344,515.3906 711.5938,515.7188 Q710.9688,516.0469 710.4688,516.7969 Q709.9844,517.5469 709.9844,518.5781 L709.9844,519.6719 Q709.9844,520.9063 710.875,521.7344 Q711.7656,522.5469 713.3594,522.5469 Q714.2969,522.5469 714.9531,522.2969 Q715.3438,522.1406 715.7656,521.7031 Q716.0313,521.4375 716.1719,521.3594 Q716.3281,521.2813 716.5313,521.2813 Q716.8594,521.2813 717.1094,521.5469 Q717.375,521.7969 717.375,522.1406 Q717.375,522.4844 717.0313,522.8906 Q716.5313,523.4688 715.7344,523.7969 Q714.6563,524.25 713.3594,524.25 Q711.8438,524.25 710.6406,523.625 Q709.6563,523.125 708.9688,522.0625 Q708.2813,520.9844 708.2813,519.7031 L708.2813,518.5469 Q708.2813,517.2188 708.8906,516.0781 Q709.5156,514.9219 710.6094,514.3125 Q711.7031,513.6875 712.9375,513.6875 Q713.6719,513.6875 714.3125,513.8594 Q714.9688,514.0156 715.5156,514.375 Z " fill="#000000"/><text fill="#000000" font-family="sans-serif" font-size="14" lengthAdjust="spacing" textLength="41" x="733.25" y="524.2285">Frame</text><line style="stroke:#181818;stroke-width:0.5;" x1="634.5" x2="840.5" y1="534.5" y2="534.5"/><line style="stroke:#181818;stroke-width:0.5;" x1="634.5" x2="840.5" y1="542.5" y2="542.5"/><ellipse cx="644.5" cy="556.8047" fill="#84BE84" rx="3" ry="3" style="stroke:#038048;stroke-width:1.0;"/><text fill="#000000" font-family="sans-serif" font-size="14" lengthAdjust="spacing" textLength="114" x="653.5" y="561.0332">getNewLabel(): Int</text><ellipse cx="644.5" cy="574.4141" fill="#84BE84" rx="3" ry="3" style="stroke:#038048;stroke-width:1.0;"/><text fill="#000000" font-family="sans-serif" font-size="14" lengthAdjust="spacing" textLength="41" x="653.5" y="578.6426">push()</text><ellipse cx="644.5" cy="592.0234" fill="#84BE84" rx="3" ry="3" style="stroke:#038048;stroke-width:1.0;"/><text fill="#000000" font-family="sans-serif" font-size="14" lengthAdjust="spacing" textLength="34" x="653.5" y="596.252">pop()</text><ellipse cx="644.5" cy="609.6328" fill="#84BE84" rx="3" ry="3" style="stroke:#038048;stroke-width:1.0;"/><text fill="#000000" font-family="sans-serif" font-size="14" lengthAdjust="spacing" textLength="158" x="653.5" y="613.8613">getMaxOpStackSize(): Int</text><ellipse cx="644.5" cy="627.2422" fill="#84BE84" rx="3" ry="3" style="stroke:#038048;stroke-width:1.0;"/><text fill="#000000" font-family="sans-serif" font-size="14" lengthAdjust="spacing" textLength="111" x="653.5" y="631.4707">getMaxIndex(): Int</text><ellipse cx="644.5" cy="644.8516" fill="#84BE84" rx="3" ry="3" style="stroke:#038048;stroke-width:1.0;"/><text fill="#000000" font-family="sans-serif" font-size="14" lengthAdjust="spacing" textLength="182" x="653.5" y="649.0801">enterScope(isProc: Boolean)</text><ellipse cx="644.5" cy="662.4609" fill="#84BE84" rx="3" ry="3" style="stroke:#038048;stroke-width:1.0;"/><text fill="#000000" font-family="sans-serif" font-size="14" lengthAdjust="spacing" textLength="71" x="653.5" y="666.6895">exitScope()</text><ellipse cx="644.5" cy="680.0703" fill="#84BE84" rx="3" ry="3" style="stroke:#038048;stroke-width:1.0;"/><text fill="#000000" font-family="sans-serif" font-size="14" lengthAdjust="spacing" textLength="118" x="653.5" y="684.2988">getStartLabel(): Int</text><ellipse cx="644.5" cy="697.6797" fill="#84BE84" rx="3" ry="3" style="stroke:#038048;stroke-width:1.0;"/><text fill="#000000" font-family="sans-serif" font-size="14" lengthAdjust="spacing" textLength="113" x="653.5" y="701.9082">getEndLabel(): Int</text></g><!--class Emitter--><g id="elem_Emitter"><rect codeLine="53" fill="#F1F1F1" height="294.5313" id="Emitter" rx="2.5" ry="2.5" style="stroke:#181818;stroke-width:0.5;" width="597" x="439" y="33"/><ellipse cx="711.25" cy="49" fill="#ADD1B2" rx="11" ry="11" style="stroke:#181818;stroke-width:1.0;"/><path d="M714.0156,44.875 Q714.1719,44.6563 714.3594,44.5469 Q714.5469,44.4375 714.7656,44.4375 Q715.1406,44.4375 715.375,44.7031 Q715.6094,44.9531 715.6094,45.5625 L715.6094,47.0156 Q715.6094,47.625 715.375,47.8906 Q715.1406,48.1563 714.7656,48.1563 Q714.4219,48.1563 714.2188,47.9531 Q714.0156,47.7656 713.9063,47.25 Q713.8594,46.8906 713.6719,46.7031 Q713.3438,46.3281 712.7344,46.1094 Q712.125,45.8906 711.5,45.8906 Q710.7344,45.8906 710.0938,46.2188 Q709.4688,46.5469 708.9688,47.2969 Q708.4844,48.0469 708.4844,49.0781 L708.4844,50.1719 Q708.4844,51.4063 709.375,52.2344 Q710.2656,53.0469 711.8594,53.0469 Q712.7969,53.0469 713.4531,52.7969 Q713.8438,52.6406 714.2656,52.2031 Q714.5313,51.9375 714.6719,51.8594 Q714.8281,51.7813 715.0313,51.7813 Q715.3594,51.7813 715.6094,52.0469 Q715.875,52.2969 715.875,52.6406 Q715.875,52.9844 715.5313,53.3906 Q715.0313,53.9688 714.2344,54.2969 Q713.1563,54.75 711.8594,54.75 Q710.3438,54.75 709.1406,54.125 Q708.1563,53.625 707.4688,52.5625 Q706.7813,51.4844 706.7813,50.2031 L706.7813,49.0469 Q706.7813,47.7188 707.3906,46.5781 Q708.0156,45.4219 709.1094,44.8125 Q710.2031,44.1875 711.4375,44.1875 Q712.1719,44.1875 712.8125,44.3594 Q713.4688,44.5156 714.0156,44.875 Z " fill="#000000"/><text fill="#000000" font-family="sans-serif" font-size="14" lengthAdjust="spacing" textLength="44" x="731.75" y="54.7285">Emitter</text><line style="stroke:#181818;stroke-width:0.5;" x1="440" x2="1035" y1="65" y2="65"/><rect fill="none" height="6" style="stroke:#C82930;stroke-width:1.0;" width="6" x="447" y="76.3047"/><text fill="#000000" font-family="sans-serif" font-size="14" lengthAdjust="spacing" textLength="98" x="459" y="83.5332">filename: String</text><rect fill="none" height="6" style="stroke:#C82930;stroke-width:1.0;" width="6" x="447" y="93.9141"/><text fill="#000000" font-family="sans-serif" font-size="14" lengthAdjust="spacing" textLength="54" x="459" y="101.1426">buff: List</text><rect fill="none" height="6" style="stroke:#C82930;stroke-width:1.0;" width="6" x="447" y="111.5234"/><text fill="#000000" font-family="sans-serif" font-size="14" lengthAdjust="spacing" textLength="106" x="459" y="118.752">jvm: JasminCode</text><line style="stroke:#181818;stroke-width:0.5;" x1="440" x2="1035" y1="125.8281" y2="125.8281"/><ellipse cx="450" cy="140.1328" fill="#84BE84" rx="3" ry="3" style="stroke:#038048;stroke-width:1.0;"/><text fill="#000000" font-family="sans-serif" font-size="14" lengthAdjust="spacing" textLength="158" x="459" y="144.3613">__init__(filename: String)</text><ellipse cx="450" cy="157.7422" fill="#84BE84" rx="3" ry="3" style="stroke:#038048;stroke-width:1.0;"/><text fill="#000000" font-family="sans-serif" font-size="14" lengthAdjust="spacing" textLength="298" x="459" y="161.9707">emitPUSHICONST(in_: Int|String, frame: Frame)</text><ellipse cx="450" cy="175.3516" fill="#84BE84" rx="3" ry="3" style="stroke:#038048;stroke-width:1.0;"/><text fill="#000000" font-family="sans-serif" font-size="14" lengthAdjust="spacing" textLength="286" x="459" y="179.5801">emitPUSHFCONST(in_: String, frame: Frame)</text><ellipse cx="450" cy="192.9609" fill="#84BE84" rx="3" ry="3" style="stroke:#038048;stroke-width:1.0;"/><text fill="#000000" font-family="sans-serif" font-size="14" lengthAdjust="spacing" textLength="571" x="459" y="197.1895">emitVAR(in_: Int, varName: String, inType: Type, fromLabel: Int, toLabel: Int, frame: Frame)</text><ellipse cx="450" cy="210.5703" fill="#84BE84" rx="3" ry="3" style="stroke:#038048;stroke-width:1.0;"/><text fill="#000000" font-family="sans-serif" font-size="14" lengthAdjust="spacing" textLength="430" x="459" y="214.7988">emitREADVAR(name: String, inType: Type, index: Int, frame: Frame)</text><ellipse cx="450" cy="228.1797" fill="#84BE84" rx="3" ry="3" style="stroke:#038048;stroke-width:1.0;"/><text fill="#000000" font-family="sans-serif" font-size="14" lengthAdjust="spacing" textLength="436" x="459" y="232.4082">emitWRITEVAR(name: String, inType: Type, index: Int, frame: Frame)</text><ellipse cx="450" cy="245.7891" fill="#84BE84" rx="3" ry="3" style="stroke:#038048;stroke-width:1.0;"/><text fill="#000000" font-family="sans-serif" font-size="14" lengthAdjust="spacing" textLength="457" x="459" y="250.0176">emitMETHOD(lexeme: String, in_: Type, isStatic: Boolean, frame: Frame)</text><ellipse cx="450" cy="263.3984" fill="#84BE84" rx="3" ry="3" style="stroke:#038048;stroke-width:1.0;"/><text fill="#000000" font-family="sans-serif" font-size="14" lengthAdjust="spacing" textLength="208" x="459" y="267.627">emitENDMETHOD(frame: Frame)</text><ellipse cx="450" cy="281.0078" fill="#84BE84" rx="3" ry="3" style="stroke:#038048;stroke-width:1.0;"/><text fill="#000000" font-family="sans-serif" font-size="14" lengthAdjust="spacing" textLength="225" x="459" y="285.2363">emitLABEL(label: Int, frame: Frame)</text><ellipse cx="450" cy="298.6172" fill="#84BE84" rx="3" ry="3" style="stroke:#038048;stroke-width:1.0;"/><text fill="#000000" font-family="sans-serif" font-size="14" lengthAdjust="spacing" textLength="224" x="459" y="302.8457">emitGOTO(label: Int, frame: Frame)</text><ellipse cx="450" cy="316.2266" fill="#84BE84" rx="3" ry="3" style="stroke:#038048;stroke-width:1.0;"/><text fill="#000000" font-family="sans-serif" font-size="14" lengthAdjust="spacing" textLength="244" x="459" y="320.4551">emitRETURN(in_: Type, frame: Frame)</text></g><!--reverse link MachineCode to JasminCode--><g id="link_MachineCode_JasminCode"><path codeLine="70" d="M249.5635,371.6953 C255.4935,397.2853 257.54,406.12 263.47,431.71 " fill="none" id="MachineCode-backto-JasminCode" style="stroke:#181818;stroke-width:1.0;"/><polygon fill="none" points="245.5,354.16,243.7184,373.0498,255.4086,370.3408,245.5,354.16" style="stroke:#181818;stroke-width:1.0;"/></g><!--reverse link Emitter to JasminCode--><g id="link_Emitter_JasminCode"><path codeLine="71" d="M578.3351,336.6342 C544.0551,370.0342 515.93,397.46 480.66,431.83 " fill="none" id="Emitter-backto-JasminCode" style="stroke:#181818;stroke-width:1.0;"/><polygon fill="#181818" points="586.93,328.26,579.8411,329.5822,578.3351,336.6342,585.424,335.3121,586.93,328.26" style="stroke:#181818;stroke-width:1.0;"/><text fill="#000000" font-family="sans-serif" font-size="13" lengthAdjust="spacing" textLength="28" x="521.5" y="398.4951">uses</text></g><!--reverse link Emitter to Frame--><g id="link_Emitter_Frame"><path codeLine="72" d="M737.5,340.26 C737.5,397.65 737.5,450.07 737.5,502.26 " fill="none" id="Emitter-backto-Frame" style="stroke:#181818;stroke-width:1.0;"/><polygon fill="#181818" points="737.5,328.26,733.5,334.26,737.5,340.26,741.5,334.26,737.5,328.26" style="stroke:#181818;stroke-width:1.0;"/><text fill="#000000" font-family="sans-serif" font-size="13" lengthAdjust="spacing" textLength="28" x="738.5" y="398.4951">uses</text></g><!--SRC=[hPR1Sfim48RlVWeTSMk_0DCBDd921uC7vFR8o5XEr89Wa9mwJVBk5M0m42GdJJXuGFlllolfsnd72UOSh75yJnbPPdi2dYP0FazunqM1O_42lfAKYiqslFMshcjCHyFEqlT2P50JE4oCInPEwQ6LXDSbhhqqA8jC48g2ihjnqQhjHgToND-oQpDbEIT4VW2lYAmt65blCRg1A4GMSfP6Gaua9Kt_Co0US_rcDjl_Jbr3TElRkhmPe3mKMD3O18iiImXcurRGiyzkYjkp5j0r4hmZYUuOVEHV5GKGRGDFrdcPJE8Auk-OfvHr61u3LqMh2b4LbseODGGgiLEpfWHCJTLxKNelFn-5PfGK3Hvg9XGWh0gSjWpS4U6HFswPQKoht7ezF_BxfdQUvSshbA_noSzbv_7laFublQGwwh0zEVNM2HEa2ECi9mRbco9xlUMJfAYAN-h84eLutPYCGBRlhRSxWtA_ij9vR_C3JGZ3b_ElLtV7my44BkMruVpNGsfsXgEk4aMKKH55nj1ZsX-TPbJEX3qtTtiegfpgg0SfgqxA5VaFAsYjP-015nxkqaGPUipbT_bRUcIfsn8WMSkwNueA0RJiiWhJ6DFoFlKsFmC7mK_mKOnDTGPda-7GABqk8wGG3CT9wJGOBirXLgFMwROlb9ns_qbyUvxFk-0rz7xfBGCJ73dXlMWzmNNW7m00]--></g></svg>