<?xml version="1.0" encoding="us-ascii" standalone="no"?><svg xmlns="http://www.w3.org/2000/svg" xmlns:xlink="http://www.w3.org/1999/xlink" contentStyleType="text/css" height="1306px" preserveAspectRatio="none" style="width:644px;height:1306px;background:#FFFFFF;" version="1.1" viewBox="0 0 644 1306" width="644px" zoomAndPan="magnify"><defs/><g><!--class Emitter--><g id="elem_Emitter"><rect codeLine="1" fill="#F1F1F1" height="1285.4375" id="Emitter" rx="2.5" ry="2.5" style="stroke:#181818;stroke-width:0.5;" width="623" x="7" y="7"/><ellipse cx="292.25" cy="23" fill="#ADD1B2" rx="11" ry="11" style="stroke:#181818;stroke-width:1.0;"/><path d="M295.0156,18.875 Q295.1719,18.6563 295.3594,18.5469 Q295.5469,18.4375 295.7656,18.4375 Q296.1406,18.4375 296.375,18.7031 Q296.6094,18.9531 296.6094,19.5625 L296.6094,21.0156 Q296.6094,21.625 296.375,21.8906 Q296.1406,22.1563 295.7656,22.1563 Q295.4219,22.1563 295.2188,21.9531 Q295.0156,21.7656 294.9063,21.25 Q294.8594,20.8906 294.6719,20.7031 Q294.3438,20.3281 293.7344,20.1094 Q293.125,19.8906 292.5,19.8906 Q291.7344,19.8906 291.0938,20.2188 Q290.4688,20.5469 289.9688,21.2969 Q289.4844,22.0469 289.4844,23.0781 L289.4844,24.1719 Q289.4844,25.4063 290.375,26.2344 Q291.2656,27.0469 292.8594,27.0469 Q293.7969,27.0469 294.4531,26.7969 Q294.8438,26.6406 295.2656,26.2031 Q295.5313,25.9375 295.6719,25.8594 Q295.8281,25.7813 296.0313,25.7813 Q296.3594,25.7813 296.6094,26.0469 Q296.875,26.2969 296.875,26.6406 Q296.875,26.9844 296.5313,27.3906 Q296.0313,27.9688 295.2344,28.2969 Q294.1563,28.75 292.8594,28.75 Q291.3438,28.75 290.1406,28.125 Q289.1563,27.625 288.4688,26.5625 Q287.7813,25.4844 287.7813,24.2031 L287.7813,23.0469 Q287.7813,21.7188 288.3906,20.5781 Q289.0156,19.4219 290.1094,18.8125 Q291.2031,18.1875 292.4375,18.1875 Q293.1719,18.1875 293.8125,18.3594 Q294.4688,18.5156 295.0156,18.875 Z " fill="#000000"/><text fill="#000000" font-family="sans-serif" font-size="14" lengthAdjust="spacing" textLength="44" x="312.75" y="28.7285">Emitter</text><line style="stroke:#181818;stroke-width:0.5;" x1="8" x2="629" y1="39" y2="39"/><rect fill="none" height="6" style="stroke:#C82930;stroke-width:1.0;" width="6" x="15" y="71.9141"/><text fill="#000000" font-family="sans-serif" font-size="14" lengthAdjust="spacing" textLength="102" x="27" y="79.1426">filename : String</text><rect fill="none" height="6" style="stroke:#C82930;stroke-width:1.0;" width="6" x="15" y="89.5234"/><text fill="#000000" font-family="sans-serif" font-size="14" lengthAdjust="spacing" textLength="58" x="27" y="96.752">buff : List</text><rect fill="none" height="6" style="stroke:#C82930;stroke-width:1.0;" width="6" x="15" y="107.1328"/><text fill="#000000" font-family="sans-serif" font-size="14" lengthAdjust="spacing" textLength="110" x="27" y="114.3613">jvm : JasminCode</text><ellipse cx="18" cy="127.7422" fill="#84BE84" rx="3" ry="3" style="stroke:#038048;stroke-width:1.0;"/><text fill="#000000" font-family="sans-serif" font-size="14" lengthAdjust="spacing" textLength="162" x="27" y="131.9707">__init__(filename : String)</text><ellipse cx="18" cy="145.3516" fill="#84BE84" rx="3" ry="3" style="stroke:#038048;stroke-width:1.0;"/><text fill="#000000" font-family="sans-serif" font-size="14" lengthAdjust="spacing" textLength="87" x="27" y="149.5801">emitEPILOG()</text><ellipse cx="18" cy="162.9609" fill="#84BE84" rx="3" ry="3" style="stroke:#038048;stroke-width:1.0;"/><text fill="#000000" font-family="sans-serif" font-size="14" lengthAdjust="spacing" textLength="126" x="27" y="167.1895">printout(in_ : String)</text><ellipse cx="18" cy="180.5703" fill="#84BE84" rx="3" ry="3" style="stroke:#038048;stroke-width:1.0;"/><text fill="#000000" font-family="sans-serif" font-size="14" lengthAdjust="spacing" textLength="66" x="27" y="184.7988">clearBuff()</text><text fill="#000000" font-family="sans-serif" font-size="14" lengthAdjust="spacing" textLength="4" x="27" y="202.4082">&#160;</text><line style="stroke:#181818;stroke-width:1.0;" x1="8" x2="204.5" y1="55.8047" y2="55.8047"/><text fill="#000000" font-family="sans-serif" font-size="14" lengthAdjust="spacing" textLength="228" x="204.5" y="61.0332">Initialization and Buffer Management</text><line style="stroke:#181818;stroke-width:1.0;" x1="432.5" x2="629" y1="55.8047" y2="55.8047"/><ellipse cx="18" cy="237.3984" fill="#84BE84" rx="3" ry="3" style="stroke:#038048;stroke-width:1.0;"/><text fill="#000000" font-family="sans-serif" font-size="14" lengthAdjust="spacing" textLength="131" x="27" y="241.627">getJVMType(inType)</text><ellipse cx="18" cy="255.0078" fill="#84BE84" rx="3" ry="3" style="stroke:#038048;stroke-width:1.0;"/><text fill="#000000" font-family="sans-serif" font-size="14" lengthAdjust="spacing" textLength="128" x="27" y="259.2363">getFullType(inType)</text><text fill="#000000" font-family="sans-serif" font-size="14" lengthAdjust="spacing" textLength="4" x="27" y="276.8457">&#160;</text><line style="stroke:#181818;stroke-width:1.0;" x1="8" x2="264.5" y1="218.2891" y2="218.2891"/><text fill="#000000" font-family="sans-serif" font-size="14" lengthAdjust="spacing" textLength="108" x="264.5" y="223.5176">Type Conversion</text><line style="stroke:#181818;stroke-width:1.0;" x1="372.5" x2="629" y1="218.2891" y2="218.2891"/><ellipse cx="18" cy="311.8359" fill="#84BE84" rx="3" ry="3" style="stroke:#038048;stroke-width:1.0;"/><text fill="#000000" font-family="sans-serif" font-size="14" lengthAdjust="spacing" textLength="306" x="27" y="316.0645">emitPUSHICONST(in_ : Int|String, frame : Frame)</text><ellipse cx="18" cy="329.4453" fill="#84BE84" rx="3" ry="3" style="stroke:#038048;stroke-width:1.0;"/><text fill="#000000" font-family="sans-serif" font-size="14" lengthAdjust="spacing" textLength="294" x="27" y="333.6738">emitPUSHFCONST(in_ : String, frame : Frame)</text><ellipse cx="18" cy="347.0547" fill="#84BE84" rx="3" ry="3" style="stroke:#038048;stroke-width:1.0;"/><text fill="#000000" font-family="sans-serif" font-size="14" lengthAdjust="spacing" textLength="356" x="27" y="351.2832">emitPUSHCONST(in_ : String, typ : Type, frame : Frame)</text><text fill="#000000" font-family="sans-serif" font-size="14" lengthAdjust="spacing" textLength="4" x="27" y="368.8926">&#160;</text><line style="stroke:#181818;stroke-width:1.0;" x1="8" x2="260" y1="292.7266" y2="292.7266"/><text fill="#000000" font-family="sans-serif" font-size="14" lengthAdjust="spacing" textLength="117" x="260" y="297.9551">Constant Emission</text><line style="stroke:#181818;stroke-width:1.0;" x1="377" x2="629" y1="292.7266" y2="292.7266"/><ellipse cx="18" cy="403.8828" fill="#84BE84" rx="3" ry="3" style="stroke:#038048;stroke-width:1.0;"/><text fill="#000000" font-family="sans-serif" font-size="14" lengthAdjust="spacing" textLength="595" x="27" y="408.1113">emitVAR(in_ : Int, varName : String, inType : Type, fromLabel : Int, toLabel : Int, frame : Frame)</text><ellipse cx="18" cy="421.4922" fill="#84BE84" rx="3" ry="3" style="stroke:#038048;stroke-width:1.0;"/><text fill="#000000" font-family="sans-serif" font-size="14" lengthAdjust="spacing" textLength="446" x="27" y="425.7207">emitREADVAR(name : String, inType : Type, index : Int, frame : Frame)</text><ellipse cx="18" cy="439.1016" fill="#84BE84" rx="3" ry="3" style="stroke:#038048;stroke-width:1.0;"/><text fill="#000000" font-family="sans-serif" font-size="14" lengthAdjust="spacing" textLength="452" x="27" y="443.3301">emitWRITEVAR(name : String, inType : Type, index : Int, frame : Frame)</text><text fill="#000000" font-family="sans-serif" font-size="14" lengthAdjust="spacing" textLength="4" x="27" y="460.9395">&#160;</text><line style="stroke:#181818;stroke-width:1.0;" x1="8" x2="255.5" y1="384.7734" y2="384.7734"/><text fill="#000000" font-family="sans-serif" font-size="14" lengthAdjust="spacing" textLength="126" x="255.5" y="390.002">Variable Operations</text><line style="stroke:#181818;stroke-width:1.0;" x1="381.5" x2="629" y1="384.7734" y2="384.7734"/><ellipse cx="18" cy="495.9297" fill="#84BE84" rx="3" ry="3" style="stroke:#038048;stroke-width:1.0;"/><text fill="#000000" font-family="sans-serif" font-size="14" lengthAdjust="spacing" textLength="243" x="27" y="500.1582">emitALOAD(in_ : Type, frame : Frame)</text><ellipse cx="18" cy="513.5391" fill="#84BE84" rx="3" ry="3" style="stroke:#038048;stroke-width:1.0;"/><text fill="#000000" font-family="sans-serif" font-size="14" lengthAdjust="spacing" textLength="253" x="27" y="517.7676">emitASTORE(in_ : Type, frame : Frame)</text><text fill="#000000" font-family="sans-serif" font-size="14" lengthAdjust="spacing" textLength="4" x="27" y="535.377">&#160;</text><line style="stroke:#181818;stroke-width:1.0;" x1="8" x2="264.5" y1="476.8203" y2="476.8203"/><text fill="#000000" font-family="sans-serif" font-size="14" lengthAdjust="spacing" textLength="108" x="264.5" y="482.0488">Array Operations</text><line style="stroke:#181818;stroke-width:1.0;" x1="372.5" x2="629" y1="476.8203" y2="476.8203"/><ellipse cx="18" cy="570.3672" fill="#84BE84" rx="3" ry="3" style="stroke:#038048;stroke-width:1.0;"/><text fill="#000000" font-family="sans-serif" font-size="14" lengthAdjust="spacing" textLength="597" x="27" y="574.5957">emitATTRIBUTE(lexeme : String, in_ : Type, isStatic : Boolean, isFinal : Boolean, value : String)</text><ellipse cx="18" cy="587.9766" fill="#84BE84" rx="3" ry="3" style="stroke:#038048;stroke-width:1.0;"/><text fill="#000000" font-family="sans-serif" font-size="14" lengthAdjust="spacing" textLength="375" x="27" y="592.2051">emitGETSTATIC(lexeme : String, in_ : Type, frame : Frame)</text><ellipse cx="18" cy="605.5859" fill="#84BE84" rx="3" ry="3" style="stroke:#038048;stroke-width:1.0;"/><text fill="#000000" font-family="sans-serif" font-size="14" lengthAdjust="spacing" textLength="373" x="27" y="609.8145">emitPUTSTATIC(lexeme : String, in_ : Type, frame : Frame)</text><ellipse cx="18" cy="623.1953" fill="#84BE84" rx="3" ry="3" style="stroke:#038048;stroke-width:1.0;"/><text fill="#000000" font-family="sans-serif" font-size="14" lengthAdjust="spacing" textLength="365" x="27" y="627.4238">emitGETFIELD(lexeme : String, in_ : Type, frame : Frame)</text><ellipse cx="18" cy="640.8047" fill="#84BE84" rx="3" ry="3" style="stroke:#038048;stroke-width:1.0;"/><text fill="#000000" font-family="sans-serif" font-size="14" lengthAdjust="spacing" textLength="363" x="27" y="645.0332">emitPUTFIELD(lexeme : String, in_ : Type, frame : Frame)</text><text fill="#000000" font-family="sans-serif" font-size="14" lengthAdjust="spacing" textLength="4" x="27" y="662.6426">&#160;</text><line style="stroke:#181818;stroke-width:1.0;" x1="8" x2="266" y1="551.2578" y2="551.2578"/><text fill="#000000" font-family="sans-serif" font-size="14" lengthAdjust="spacing" textLength="105" x="266" y="556.4863">Field Operations</text><line style="stroke:#181818;stroke-width:1.0;" x1="371" x2="629" y1="551.2578" y2="551.2578"/><ellipse cx="18" cy="697.6328" fill="#84BE84" rx="3" ry="3" style="stroke:#038048;stroke-width:1.0;"/><text fill="#000000" font-family="sans-serif" font-size="14" lengthAdjust="spacing" textLength="396" x="27" y="701.8613">emitINVOKESTATIC(lexeme : String, in_ : Type, frame : Frame)</text><ellipse cx="18" cy="715.2422" fill="#84BE84" rx="3" ry="3" style="stroke:#038048;stroke-width:1.0;"/><text fill="#000000" font-family="sans-serif" font-size="14" lengthAdjust="spacing" textLength="502" x="27" y="719.4707">emitINVOKESPECIAL(frame : Frame, lexeme : String = None, in_ : Type = None)</text><ellipse cx="18" cy="732.8516" fill="#84BE84" rx="3" ry="3" style="stroke:#038048;stroke-width:1.0;"/><text fill="#000000" font-family="sans-serif" font-size="14" lengthAdjust="spacing" textLength="404" x="27" y="737.0801">emitINVOKEVIRTUAL(lexeme : String, in_ : Type, frame : Frame)</text><text fill="#000000" font-family="sans-serif" font-size="14" lengthAdjust="spacing" textLength="4" x="27" y="754.6895">&#160;</text><line style="stroke:#181818;stroke-width:1.0;" x1="8" x2="261" y1="678.5234" y2="678.5234"/><text fill="#000000" font-family="sans-serif" font-size="14" lengthAdjust="spacing" textLength="115" x="261" y="683.752">Method Invocation</text><line style="stroke:#181818;stroke-width:1.0;" x1="376" x2="629" y1="678.5234" y2="678.5234"/><ellipse cx="18" cy="789.6797" fill="#84BE84" rx="3" ry="3" style="stroke:#038048;stroke-width:1.0;"/><text fill="#000000" font-family="sans-serif" font-size="14" lengthAdjust="spacing" textLength="245" x="27" y="793.9082">emitNEGOP(in_ : Type, frame : Frame)</text><ellipse cx="18" cy="807.2891" fill="#84BE84" rx="3" ry="3" style="stroke:#038048;stroke-width:1.0;"/><text fill="#000000" font-family="sans-serif" font-size="14" lengthAdjust="spacing" textLength="346" x="27" y="811.5176">emitADDOP(lexeme : String, in_ : Type, frame : Frame)</text><ellipse cx="18" cy="824.8984" fill="#84BE84" rx="3" ry="3" style="stroke:#038048;stroke-width:1.0;"/><text fill="#000000" font-family="sans-serif" font-size="14" lengthAdjust="spacing" textLength="345" x="27" y="829.127">emitMULOP(lexeme : String, in_ : Type, frame : Frame)</text><ellipse cx="18" cy="842.5078" fill="#84BE84" rx="3" ry="3" style="stroke:#038048;stroke-width:1.0;"/><text fill="#000000" font-family="sans-serif" font-size="14" lengthAdjust="spacing" textLength="147" x="27" y="846.7363">emitDIV(frame : Frame)</text><ellipse cx="18" cy="860.1172" fill="#84BE84" rx="3" ry="3" style="stroke:#038048;stroke-width:1.0;"/><text fill="#000000" font-family="sans-serif" font-size="14" lengthAdjust="spacing" textLength="157" x="27" y="864.3457">emitMOD(frame : Frame)</text><ellipse cx="18" cy="877.7266" fill="#84BE84" rx="3" ry="3" style="stroke:#038048;stroke-width:1.0;"/><text fill="#000000" font-family="sans-serif" font-size="14" lengthAdjust="spacing" textLength="173" x="27" y="881.9551">emitANDOP(frame : Frame)</text><ellipse cx="18" cy="895.3359" fill="#84BE84" rx="3" ry="3" style="stroke:#038048;stroke-width:1.0;"/><text fill="#000000" font-family="sans-serif" font-size="14" lengthAdjust="spacing" textLength="166" x="27" y="899.5645">emitOROP(frame : Frame)</text><text fill="#000000" font-family="sans-serif" font-size="14" lengthAdjust="spacing" textLength="4" x="27" y="917.1738">&#160;</text><line style="stroke:#181818;stroke-width:1.0;" x1="8" x2="212" y1="770.5703" y2="770.5703"/><text fill="#000000" font-family="sans-serif" font-size="14" lengthAdjust="spacing" textLength="213" x="212" y="775.7988">Arithmetic and Logical Operations</text><line style="stroke:#181818;stroke-width:1.0;" x1="425" x2="629" y1="770.5703" y2="770.5703"/><ellipse cx="18" cy="952.1641" fill="#84BE84" rx="3" ry="3" style="stroke:#038048;stroke-width:1.0;"/><text fill="#000000" font-family="sans-serif" font-size="14" lengthAdjust="spacing" textLength="308" x="27" y="956.3926">emitREOP(op : String, in_ : Type, frame : Frame)</text><ellipse cx="18" cy="969.7734" fill="#84BE84" rx="3" ry="3" style="stroke:#038048;stroke-width:1.0;"/><text fill="#000000" font-family="sans-serif" font-size="14" lengthAdjust="spacing" textLength="511" x="27" y="974.002">emitRELOP(op : String, in_ : Type, trueLabel : Int, falseLabel : Int, frame : Frame)</text><text fill="#000000" font-family="sans-serif" font-size="14" lengthAdjust="spacing" textLength="4" x="27" y="991.6113">&#160;</text><line style="stroke:#181818;stroke-width:1.0;" x1="8" x2="250" y1="933.0547" y2="933.0547"/><text fill="#000000" font-family="sans-serif" font-size="14" lengthAdjust="spacing" textLength="137" x="250" y="938.2832">Relational Operations</text><line style="stroke:#181818;stroke-width:1.0;" x1="387" x2="629" y1="933.0547" y2="933.0547"/><ellipse cx="18" cy="1026.6016" fill="#84BE84" rx="3" ry="3" style="stroke:#038048;stroke-width:1.0;"/><text fill="#000000" font-family="sans-serif" font-size="14" lengthAdjust="spacing" textLength="239" x="27" y="1030.8301">emitIFTRUE(label : Int, frame : Frame)</text><ellipse cx="18" cy="1044.2109" fill="#84BE84" rx="3" ry="3" style="stroke:#038048;stroke-width:1.0;"/><text fill="#000000" font-family="sans-serif" font-size="14" lengthAdjust="spacing" textLength="246" x="27" y="1048.4395">emitIFFALSE(label : Int, frame : Frame)</text><ellipse cx="18" cy="1061.8203" fill="#84BE84" rx="3" ry="3" style="stroke:#038048;stroke-width:1.0;"/><text fill="#000000" font-family="sans-serif" font-size="14" lengthAdjust="spacing" textLength="232" x="27" y="1066.0488">emitGOTO(label : Int, frame : Frame)</text><ellipse cx="18" cy="1079.4297" fill="#84BE84" rx="3" ry="3" style="stroke:#038048;stroke-width:1.0;"/><text fill="#000000" font-family="sans-serif" font-size="14" lengthAdjust="spacing" textLength="233" x="27" y="1083.6582">emitLABEL(label : Int, frame : Frame)</text><text fill="#000000" font-family="sans-serif" font-size="14" lengthAdjust="spacing" textLength="4" x="27" y="1101.2676">&#160;</text><line style="stroke:#181818;stroke-width:1.0;" x1="8" x2="279" y1="1007.4922" y2="1007.4922"/><text fill="#000000" font-family="sans-serif" font-size="14" lengthAdjust="spacing" textLength="79" x="279" y="1012.7207">Control Flow</text><line style="stroke:#181818;stroke-width:1.0;" x1="358" x2="629" y1="1007.4922" y2="1007.4922"/><ellipse cx="18" cy="1136.2578" fill="#84BE84" rx="3" ry="3" style="stroke:#038048;stroke-width:1.0;"/><text fill="#000000" font-family="sans-serif" font-size="14" lengthAdjust="spacing" textLength="153" x="27" y="1140.4863">emitDUP(frame : Frame)</text><ellipse cx="18" cy="1153.8672" fill="#84BE84" rx="3" ry="3" style="stroke:#038048;stroke-width:1.0;"/><text fill="#000000" font-family="sans-serif" font-size="14" lengthAdjust="spacing" textLength="154" x="27" y="1158.0957">emitPOP(frame : Frame)</text><ellipse cx="18" cy="1171.4766" fill="#84BE84" rx="3" ry="3" style="stroke:#038048;stroke-width:1.0;"/><text fill="#000000" font-family="sans-serif" font-size="14" lengthAdjust="spacing" textLength="145" x="27" y="1175.7051">emitI2F(frame : Frame)</text><ellipse cx="18" cy="1189.0859" fill="#84BE84" rx="3" ry="3" style="stroke:#038048;stroke-width:1.0;"/><text fill="#000000" font-family="sans-serif" font-size="14" lengthAdjust="spacing" textLength="252" x="27" y="1193.3145">emitRETURN(in_ : Type, frame : Frame)</text><text fill="#000000" font-family="sans-serif" font-size="14" lengthAdjust="spacing" textLength="4" x="27" y="1210.9238">&#160;</text><line style="stroke:#181818;stroke-width:1.0;" x1="8" x2="265" y1="1117.1484" y2="1117.1484"/><text fill="#000000" font-family="sans-serif" font-size="14" lengthAdjust="spacing" textLength="107" x="265" y="1122.377">Utility Operations</text><line style="stroke:#181818;stroke-width:1.0;" x1="372" x2="629" y1="1117.1484" y2="1117.1484"/><ellipse cx="18" cy="1245.9141" fill="#84BE84" rx="3" ry="3" style="stroke:#038048;stroke-width:1.0;"/><text fill="#000000" font-family="sans-serif" font-size="14" lengthAdjust="spacing" textLength="278" x="27" y="1250.1426">emitPROLOG(name : String, parent : String)</text><ellipse cx="18" cy="1263.5234" fill="#84BE84" rx="3" ry="3" style="stroke:#038048;stroke-width:1.0;"/><text fill="#000000" font-family="sans-serif" font-size="14" lengthAdjust="spacing" textLength="170" x="27" y="1267.752">emitLIMITSTACK(num : Int)</text><ellipse cx="18" cy="1281.1328" fill="#84BE84" rx="3" ry="3" style="stroke:#038048;stroke-width:1.0;"/><text fill="#000000" font-family="sans-serif" font-size="14" lengthAdjust="spacing" textLength="170" x="27" y="1285.3613">emitLIMITLOCAL(num : Int)</text><line style="stroke:#181818;stroke-width:1.0;" x1="8" x2="228.5" y1="1226.8047" y2="1226.8047"/><text fill="#000000" font-family="sans-serif" font-size="14" lengthAdjust="spacing" textLength="180" x="228.5" y="1232.0332">Class and Method Directives</text><line style="stroke:#181818;stroke-width:1.0;" x1="408.5" x2="629" y1="1226.8047" y2="1226.8047"/></g><!--SRC=[fLPBaw8m4BxlhyWHQvpB7hTg3mZ1pKm42u9xjA969riXiK9qP_RntpTHA465THmk5DrVV_rCawMWPGbWmOrX6lp-1Epp-0YGv8PJmNzHmvK4LAx0QBTUMyY4IhfX1PF6uevmiEQ2ILemy0LaHdEvgUGBQs9bc9UcalpO5rRmHCk2oq2js47y0EPpRXtEvzu5qw12C1iXd2ASZBrQjBLwetR6ut9-WLyAHhKBsSBhfCZRbe50oJtJfSkgYly1R9XvcasSsdAvr-2aY7P2j3GrcoKg3RLbiCKhstmks6cUVKD14cUaYWz9y-SOun2izJ77oBq7PrPHq-ecYsi6vcrhlrp85yPr1ZEgELq81f8jquT6b-qSPdvw2du8zbJ7pTuCmR4c3J-gm7J1H6rXLEkpCuaK-g5p9dlfkLonr_zoVKyHWHyZgmlaQqtVEglZuyGFg_fShNC3cf4aXNtOscN4cLXrkoGaHQESG4-mLtQMtecRbvcnvaih62bbJu9qieXBAfgYFHMxwoTj34b6V8A2VZyzG_anU-i_GX27zxj_ltdTWGapBsfbvsAlbiVjrse1YcV9C_nGTXN550R8nruBDWHdbE0hY9LaJUPATCauGod9BUCzMVkQcvU2kQ5nonwh3L_QQUaQn1YEa-cDin-65dfVfIOvljisH3ElcpW9kvL-x2BkL2VffROkOyh4eLmzfKkXDLVRzwQJGjndP_IEjNSj5INhsxwD_vZHIe18g9zdenwHDBUhvgOLZgB8nzcjw752aXkXs1z1t8kjCyaD5znqB-mmx-dgjA_bw7FazNI6v6byot8F3fSjTxwg9HDopPQ6xzbPfDCqSJUTip_ObcftxRgsi36Q8BToWsTFxefZdIxqE0diTcZe__u3]--></g></svg>